<?xml version='1.0' encoding='UTF-8' standalone='no'?>
<!-- Created with Fritzing (http://www.fritzing.org/) -->
<svg xmlns:svg='http://www.w3.org/2000/svg' xmlns='http://www.w3.org/2000/svg' version='1.2' baseProfile='tiny' x='0in' y='0in' width='1.37794in' height='1.39797in' viewBox='0 0 99.2117 100.654' >
<g partID='854368370'><g  id="breadboard" gorn="0.2">
 <g  id="icon" gorn="0.2.0">
  <path  fill="#014CB1" d="M82.2047,94.9848L82.2047,83.6459L17.0079,83.6459l0,11.339c0,3.131,-2.53799,5.66899,-5.66898,5.66899c0,0,0,0,0,0C5.07698,100.654,0,95.5778,0,89.3149c0,0,0,0,0,0L0,9.94498C0.391999,4.07399,5.46798,-0.367999,11.339,0.024l76.5348,0c6.26198,0,11.339,5.07599,11.339,11.339l0,0l0,77.9529c0,6.26199,-5.07598,11.339,-11.339,11.339c0,0,0,0,0,0C84.7427,100.654,82.2047,98.1158,82.2047,94.9848C82.2047,94.9848,82.2047,94.9848,82.2047,94.9848M22.9889,8.72599c0,0.782999,0.634998,1.417,1.417,1.417c0.782997,0,1.417,-0.634999,1.417,-1.417s-0.634998,-1.417,-1.417,-1.417C23.6239,7.30899,22.9889,7.94299,22.9889,8.72599zM30.1889,8.72599c0,0.782999,0.634998,1.417,1.417,1.417c0.782997,0,1.417,-0.634999,1.417,-1.417s-0.634998,-1.417,-1.417,-1.417S30.1889,7.94299,30.1889,8.72599zM37.3889,8.72599c0,0.782999,0.634998,1.417,1.417,1.417s1.417,-0.634999,1.417,-1.417s-0.634998,-1.417,-1.417,-1.417S37.3889,7.94299,37.3889,8.72599zM44.5889,8.72599c0,0.782999,0.634998,1.417,1.417,1.417c0.782997,0,1.417,-0.634999,1.417,-1.417c0,-0.782999,-0.634998,-1.417,-1.417,-1.417S44.5889,7.94299,44.5889,8.72599zM51.7888,8.72599c0,0.782999,0.634998,1.417,1.417,1.417s1.417,-0.634999,1.417,-1.417s-0.634998,-1.417,-1.417,-1.417S51.7888,7.94299,51.7888,8.72599zM58.9888,8.72599c0,0.782999,0.634998,1.417,1.417,1.417s1.417,-0.634999,1.417,-1.417s-0.634998,-1.417,-1.417,-1.417S58.9888,7.94299,58.9888,8.72599zM66.1888,8.72599c0,0.782999,0.634998,1.417,1.417,1.417c0.782997,0,1.417,-0.634999,1.417,-1.417s-0.634998,-1.417,-1.417,-1.417C66.8238,7.30899,66.1888,7.94299,66.1888,8.72599zM73.3888,8.72599c0,0.782999,0.634998,1.417,1.417,1.417c0.782997,0,1.417,-0.634999,1.417,-1.417s-0.634998,-1.417,-1.417,-1.417C74.0238,7.30899,73.3888,7.94299,73.3888,8.72599zM87.1647,8.52799c-0.00299999,1.957,1.57999,3.54599,3.53699,3.54999c1.95699,0.003,3.54599,-1.58,3.54999,-3.53699c0,-0.00399999,0,-0.00799999,0,-0.012c0.00299999,-1.957,-1.57999,-3.54599,-3.53699,-3.54999c-1.95699,-0.003,-3.54599,1.58,-3.54999,3.53699C87.1647,8.51899,87.1647,8.52299,87.1647,8.52799zM4.96098,92.1499c-0.00299999,1.957,1.57999,3.54599,3.53699,3.54899s3.54599,-1.58,3.54899,-3.53699c0,-0.00399999,0,-0.00799999,0,-0.012c0.00299999,-1.957,-1.57999,-3.54599,-3.53699,-3.54899c-1.95699,-0.003,-3.54599,1.58,-3.54899,3.53699C4.96098,92.1419,4.96098,92.1459,4.96098,92.1499zM87.1647,92.1499c-0.00299999,1.957,1.57999,3.54599,3.53699,3.54999c1.95699,0.003,3.54599,-1.58,3.54999,-3.53699c0,-0.00399999,0,-0.00799999,0,-0.012c0.00299999,-1.957,-1.57999,-3.54599,-3.53699,-3.54999c-1.95699,-0.003,-3.54599,1.58,-3.54999,3.53699C87.1647,92.1419,87.1647,92.1459,87.1647,92.1499zM4.96098,8.52799c-0.00299999,1.957,1.57999,3.54599,3.53699,3.54899c1.95699,0.003,3.54599,-1.58,3.54899,-3.53699c0,-0.00399999,0,-0.00799999,0,-0.012c0.00299999,-1.957,-1.57999,-3.54599,-3.53699,-3.54899c-1.95699,-0.003,-3.54599,1.58,-3.54899,3.53699C4.96098,8.51999,4.96098,8.52399,4.96098,8.52799z"/>
  <g >
   <title >layer 21</title>
   <g >
    <title >text:Gnd</title>
    <g transform="matrix(1, 0, 0, 1, 71.416, 15.6936)">
     <g >
      <g >
       <text  fill="#FFFFFF" font-family="'OCRA'" font-size="2.67263">Gnd</text>
      </g>
     </g>
    </g>
   </g>
   <g >
    <title >text:Vin</title>
    <g transform="matrix(1, 0, 0, 1, 64.576, 4.89349)">
     <g >
      <g >
       <text  fill="#FFFFFF" font-family="'OCRA'" font-size="2.67263">Vin</text>
      </g>
     </g>
    </g>
   </g>
   <g >
    <title >text:3v3</title>
    <g transform="matrix(1, 0, 0, 1, 57.016, 15.6936)">
     <g >
      <g >
       <text  fill="#FFFFFF" font-family="'OCRA'" font-size="2.67263">3v3</text>
      </g>
     </g>
    </g>
   </g>
   <g >
    <title >text:CS</title>
    <g transform="matrix(1, 0, 0, 1, 50.896, 4.89349)">
     <g >
      <g >
       <text  fill="#FFFFFF" font-family="'OCRA'" font-size="2.67263">CS</text>
      </g>
     </g>
    </g>
   </g>
   <g >
    <title >text:Rst</title>
    <g transform="matrix(1, 0, 0, 1, 43.6961, 15.6936)">
     <g >
      <g >
       <text  fill="#FFFFFF" font-family="'OCRA'" font-size="2.67263">Rst</text>
      </g>
     </g>
    </g>
   </g>
   <g >
    <title >text:SA0</title>
    <g transform="matrix(1, 0, 0, 1, 35.0561, 4.89349)">
     <g >
      <g >
       <text  fill="#FFFFFF" font-family="'OCRA'" font-size="2.67263">SA0</text>
      </g>
     </g>
    </g>
   </g>
   <g >
    <title >text:Clk</title>
    <g transform="matrix(1, 0, 0, 1, 27.8561, 15.6936)">
     <g >
      <g >
       <text  fill="#FFFFFF" font-family="'OCRA'" font-size="2.67263">Clk</text>
      </g>
     </g>
    </g>
   </g>
   <g >
    <title >text:Data</title>
    <g transform="matrix(1, 0, 0, 1, 20.2961, 4.89349)">
     <g >
      <g >
       <text  fill="#FFFFFF" font-family="'OCRA'" font-size="2.67263">Data</text>
      </g>
     </g>
    </g>
   </g>
   <g >
    <title >text:DC</title>
    <g transform="matrix(1, 0, 0, 1, 36.4961, 15.6936)">
     <g >
      <g >
       <text  fill="#FFFFFF" font-family="'OCRA'" font-size="2.67263">DC</text>
      </g>
     </g>
    </g>
   </g>
   <g >
    <title >element:C1</title>
    <g >
     <title >package:0805</title>
    </g>
   </g>
   <g >
    <title >element:C2</title>
    <g >
     <title >package:0805</title>
    </g>
   </g>
   <g >
    <title >element:C3</title>
    <g >
     <title >package:0805</title>
    </g>
   </g>
   <g >
    <title >element:C4</title>
    <g >
     <title >package:0805</title>
    </g>
   </g>
   <g >
    <title >element:C5</title>
    <g >
     <title >package:0805</title>
    </g>
   </g>
   <g >
    <title >element:C6</title>
    <g >
     <title >package:0805</title>
    </g>
   </g>
   <g >
    <title >element:C7</title>
    <g >
     <title >package:0805</title>
    </g>
   </g>
   <g >
    <title >element:C8</title>
    <g >
     <title >package:0805</title>
    </g>
   </g>
   <g >
    <title >element:D1</title>
    <g >
     <title >package:SOD-323</title>
    </g>
   </g>
   <g >
    <title >element:D2</title>
    <g >
     <title >package:SOD-323</title>
    </g>
   </g>
   <g >
    <title >element:D3</title>
    <g >
     <title >package:SOD-323</title>
    </g>
   </g>
   <g >
    <title >element:FID1</title>
    <g >
     <title >package:FIDUCIAL_1MM</title>
    </g>
   </g>
   <g >
    <title >element:FID2</title>
    <g >
     <title >package:FIDUCIAL_1MM</title>
    </g>
   </g>
   <g >
    <title >element:JP1</title>
    <g >
     <title >package:1X08_ROUND_70</title>
    </g>
   </g>
   <g >
    <title >element:Q1</title>
    <g >
     <title >package:SOT23-WIDE</title>
    </g>
   </g>
   <g >
    <title >element:Q2</title>
    <g >
     <title >package:SOT23-WIDE</title>
    </g>
   </g>
   <g >
    <title >element:R2</title>
    <g >
     <title >package:0805</title>
    </g>
   </g>
   <g >
    <title >element:R3</title>
    <g >
     <title >package:0805</title>
    </g>
   </g>
   <g >
    <title >element:R4</title>
    <g >
     <title >package:0805</title>
    </g>
   </g>
   <g >
    <title >element:R5</title>
    <g >
     <title >package:0805</title>
    </g>
   </g>
   <g >
    <title >element:R6</title>
    <g >
     <title >package:0805</title>
    </g>
   </g>
   <g >
    <title >element:R11</title>
    <g >
     <title >package:0805</title>
    </g>
   </g>
   <g >
    <title >element:R12</title>
    <g >
     <title >package:0805</title>
    </g>
   </g>
   <g >
    <title >element:R13</title>
    <g >
     <title >package:0805</title>
    </g>
   </g>
   <g >
    <title >element:R14</title>
    <g >
     <title >package:0805</title>
    </g>
   </g>
   <g >
    <title >element:SJ1</title>
    <g >
     <title >package:SOLDERJUMPER_REFLOW_NOPASTE</title>
    </g>
   </g>
   <g >
    <title >element:SJ2</title>
    <g >
     <title >package:SOLDERJUMPER_REFLOW_NOPASTE</title>
    </g>
   </g>
   <g >
    <title >element:U$23</title>
    <g >
     <title >package:MOUNTINGHOLE_2.5_PLATED</title>
     <circle  stroke-width="0.431999" cx="90.7087" cy="8.52799" fill="none" stroke="#FFFFFF" r="4.96098"/>
    </g>
   </g>
   <g >
    <title >element:U$24</title>
    <g >
     <title >package:MOUNTINGHOLE_2.5_PLATED</title>
     <circle  stroke-width="0.431999" cx="8.50397" cy="92.1499" fill="none" stroke="#FFFFFF" r="4.96098"/>
    </g>
   </g>
   <g >
    <title >element:U$25</title>
    <g >
     <title >package:MOUNTINGHOLE_2.5_PLATED</title>
     <circle  stroke-width="0.431999" cx="90.7087" cy="92.1499" fill="none" stroke="#FFFFFF" r="4.96098"/>
    </g>
   </g>
   <g >
    <title >element:U$26</title>
    <g >
     <title >package:MOUNTINGHOLE_2.5_PLATED</title>
     <circle  stroke-width="0.431999" cx="8.50397" cy="8.52799" fill="none" stroke="#FFFFFF" r="4.96098"/>
    </g>
   </g>
   <g >
    <title >element:U$27</title>
    <g >
     <title >package:ADAFRUIT_2.5MM</title>
    </g>
   </g>
   <g >
    <title >element:U$28</title>
    <g >
     <title >package:LOGIC_5VREADY_5MM</title>
    </g>
   </g>
   <g >
    <title >element:U1</title>
    <g >
     <title >package:UG-2864HSWEG01_1.3_WRAPAROUND</title>
     <line  stroke-width="0.359999" stroke-linecap="round" fill="none" stroke="#FFFFFF" x1="0.855997" y1="18.33" x2="98.6517" y2="18.33"/>
     <line  stroke-width="0.359999" stroke-linecap="round" fill="none" stroke="#FFFFFF" x1="98.6517" y1="18.33" x2="98.6517" y2="83.5259"/>
     <line  stroke-width="0.359999" stroke-linecap="round" fill="none" stroke="#FFFFFF" x1="98.6517" y1="83.5259" x2="0.855997" y2="83.5259"/>
     <line  stroke-width="0.359999" stroke-linecap="round" fill="none" stroke="#FFFFFF" x1="0.855997" y1="83.5259" x2="0.855997" y2="18.33"/>
    </g>
   </g>
   <g >
    <title >element:U2</title>
    <g >
     <title >package:SOT23-5</title>
    </g>
   </g>
  </g>
  <circle  stroke-width="1.1027" cx="24.4059" cy="8.72599" fill="none" stroke="#9A916C" id="connector5pin" r="1.96899" gorn="0.2.0.2"/>
  <circle  stroke-width="1.1027" cx="31.6059" cy="8.72599" fill="none" stroke="#9A916C" id="connector6pin" r="1.96899" gorn="0.2.0.3"/>
  <circle  stroke-width="1.1027" cx="38.8059" cy="8.72599" fill="none" stroke="#9A916C" id="connector7pin" r="1.96899" gorn="0.2.0.4"/>
  <circle  stroke-width="1.1027" cx="46.0059" cy="8.72599" fill="none" stroke="#9A916C" id="connector8pin" r="1.96899" gorn="0.2.0.5"/>
  <circle  stroke-width="1.1027" cx="53.2058" cy="8.72599" fill="none" stroke="#9A916C" id="connector9pin" r="1.96899" gorn="0.2.0.6"/>
  <circle  stroke-width="1.1027" cx="60.4058" cy="8.72599" fill="none" stroke="#9A916C" id="connector10pin" r="1.96899" gorn="0.2.0.7"/>
  <circle  stroke-width="1.1027" cx="67.6058" cy="8.72599" fill="none" stroke="#9A916C" id="connector11pin" r="1.96899" gorn="0.2.0.8"/>
  <circle  stroke-width="1.1027" cx="74.8068" cy="8.72599" fill="none" stroke="#9A916C" id="connector12pin" r="1.96899" gorn="0.2.0.9"/>
  <circle  stroke-width="0.992097" cx="90.7087" cy="8.52799" fill="none" stroke="#9A916C" id="connector13pin" r="4.03899" gorn="0.2.0.10"/>
  <circle  stroke-width="0.992097" cx="8.50397" cy="92.1499" fill="none" stroke="#9A916C" id="connector14pin" r="4.03899" gorn="0.2.0.11"/>
  <circle  stroke-width="0.992097" cx="90.7087" cy="92.1499" fill="none" stroke="#9A916C" id="connector15pin" r="4.03899" gorn="0.2.0.12"/>
  <circle  stroke-width="0.992097" cx="8.50397" cy="8.52799" fill="none" stroke="#9A916C" id="connector16pin" r="4.03899" gorn="0.2.0.13"/>
 </g>
 <g transform="matrix(1, 0, 0, 1, 74.9583, 4.37106)">
  <g >
   <g >
    <g  id="adafruit_2.5mm" gorn="0.2.1.0.0">
     <g transform="matrix(0, 1, -1, 0, 9.77699, 0)">
      <g >
       <g >
        <g >
         <path  fill="#DCDCDC" d="M9.74697,3.082c-0.0229999,-0.142,-0.0999997,-0.183,-0.285999,-0.243C9.31897,2.794,8.37197,2.492,8.37197,2.492s-0.659998,-0.249,-1.15,0.103c-0.0659998,0.0479999,-0.134,0.102,-0.202999,0.16c0.0579998,-0.0689999,0.112,-0.137,0.158999,-0.203c0.351999,-0.489999,0.101,-1.15,0.101,-1.15S6.97598,0.454999,6.92998,0.313C6.86998,0.127,6.82998,0.0499999,6.68698,0.028C6.54498,0.00499999,6.48298,0.0659999,6.36898,0.225c-0.0869997,0.12,-0.666998,0.927999,-0.666998,0.927999S5.26098,1.704,5.44498,2.279C5.46998,2.356,5.49998,2.438,5.53398,2.521C5.48598,2.445,5.43798,2.372,5.38998,2.307C5.03198,1.821,4.32799,1.855,4.32799,1.855S3.33299,1.851,3.18499,1.851c-0.194999,0,-0.280999,0.014,-0.346999,0.143C2.77299,2.122,2.81099,2.2,2.92699,2.358c0.0879997,0.12,0.676998,0.920999,0.676998,0.920999s0.387999,0.589999,0.990997,0.591999c0.0809997,0,0.167999,-0.003,0.256999,-0.00999998C4.76498,3.88299,4.68098,3.90699,4.60399,3.93199c-0.572998,0.19,-0.757998,0.870999,-0.757998,0.870999s-0.309999,0.943998,-0.356999,1.085C3.42799,6.07399,3.41599,6.15999,3.51799,6.26199C3.61999,6.36399,3.70599,6.35199,3.89199,6.28999c0.141,-0.0459999,1.085,-0.358999,1.085,-0.358999s0.680998,-0.187,0.868997,-0.759999c0.0249999,-0.0769999,0.0489998,-0.16,0.0699998,-0.247C5.90998,5.01399,5.90698,5.09999,5.90698,5.18099c0.00399999,0.602999,0.593998,0.989998,0.593998,0.989998s0.801997,0.587999,0.921997,0.674999C7.58098,6.96199,7.65898,6.99999,7.78797,6.93499C7.91597,6.86899,7.93097,6.78299,7.92997,6.58799C7.92897,6.43899,7.92397,5.44499,7.92397,5.44499S7.95697,4.73999,7.46998,4.38299C7.40498,4.33499,7.33198,4.28699,7.25598,4.23999c0.0829997,0.0339999,0.164999,0.0639999,0.241999,0.0879999c0.574998,0.183,1.125,-0.259,1.125,-0.259S9.42997,3.48799,9.54997,3.40099C9.70897,3.28599,9.76897,3.22399,9.74697,3.082zM6.32198,2.35c0.108,0.017,0.161999,0.248,0.12,0.514999C6.39998,3.132,6.27798,3.33499,6.16898,3.31799C6.06098,3.30099,6.00698,3.07,6.04898,2.803C6.09098,2.535,6.21298,2.332,6.32198,2.35zM4.93298,3.059c0.0499998,-0.0979998,0.285999,-0.0779999,0.526998,0.0449999s0.396999,0.302,0.346999,0.398999C5.75698,3.60099,5.52098,3.58099,5.27998,3.45799C5.03798,3.33499,4.88298,3.15699,4.93298,3.059zM5.66498,4.39299C5.47398,4.58399,5.25598,4.67699,5.17798,4.59899C5.10098,4.52099,5.19298,4.30299,5.38398,4.11199C5.57498,3.91999,5.79298,3.82699,5.87098,3.90499C5.94898,3.98299,5.85698,4.20099,5.66498,4.39299zM6.71898,4.84199c-0.0979997,0.0499999,-0.276999,-0.105,-0.399999,-0.345999C6.19598,4.25399,6.17498,4.01799,6.27298,3.96799c0.0979997,-0.0499999,0.276999,0.105,0.399999,0.345999C6.79598,4.55599,6.81698,4.79199,6.71898,4.84199zM6.97298,3.72499C6.70598,3.76699,6.47498,3.71399,6.45698,3.60599C6.43998,3.49699,6.64298,3.37499,6.90998,3.33199c0.266999,-0.0429999,0.497998,0.011,0.514998,0.119C7.44298,3.55999,7.23998,3.68199,6.97298,3.72499z"/>
        </g>
       </g>
      </g>
     </g>
    </g>
   </g>
  </g>
 </g>
</g>
</g></svg>