<?xml version='1.0' encoding='UTF-8' standalone='no'?>
<!-- Created with Fritzing (http://www.fritzing.org/) -->
<svg xmlns:svg='http://www.w3.org/2000/svg' xmlns='http://www.w3.org/2000/svg' version='1.2' baseProfile='tiny' x='0in' y='0in' width='0.6in' height='1.7in' viewBox='0 0 43.2 122.4' >
<g partID='854200310'><g transform="matrix(1, 0, 0, 1, 0, -237.6)">
<g id="breadboard">
<g>
<g id="g4156">
<path stroke-width="4.32" stroke-opacity="1" stroke="#3b4dff" fill="none" id="path4056" d="m25.2,352.8,0,-93.6" style="color:#000000;stroke-linecap:butt;stroke-linejoin:miter;stroke-miterlimit:4;stroke-dasharray:none;stroke-dashoffset:0;marker:none;visibility:visible;display:inline;overflow:visible;enable-background:accumulate"/>
<path stroke-width="4.32" stroke-opacity="1" stroke="#e33333" fill="none" id="path4054" d="m18,352.8,0,-93.6" style="color:#000000;stroke-linecap:butt;stroke-linejoin:miter;stroke-miterlimit:4;stroke-dasharray:none;stroke-dashoffset:0;marker:none;visibility:visible;display:inline;overflow:visible;enable-background:accumulate"/>
<rect stroke="none" fill="#888888" x="16.92" id="rect4076" y="352.8" fill-opacity="1" height="4.68" width="2.16"/>
<rect stroke="none" fill="#888888" x="24.12" id="rect4078" y="352.8" fill-opacity="1" height="4.68" width="2.16"/>
<rect stroke="none" fill="#515151" x="15.84" id="connector1pin" y="354.24" fill-opacity="0" height="4.32" width="4.32"/>
<rect stroke="none" fill="#515151" x="23.04" id="connector2pin" y="354.24" fill-opacity="0" height="4.32" width="4.32"/>
<g transform="matrix(1, 0, 0, 1, 0, 237.6)">
<path stroke-width="0.5" stroke-opacity="1" stroke="#808080" fill="none" id="path4475" d="m33.0419,10.1317a16.2,16.2,0,0,1,1.77058,20.8422" style="stroke-linecap:round;stroke-linejoin:round;stroke-miterlimit:4;stroke-dasharray:none"/>
</g>
<g transform="matrix(1, 0, 0, 1, 0, 237.6)">
<path stroke-width="0.5" stroke-opacity="1" stroke="#808080" fill="none" id="path4477" d="M10.467,33.3685A16.2,16.2,0,0,1,7.45884,13.6964" style="stroke-linecap:round;stroke-linejoin:round;stroke-miterlimit:4;stroke-dasharray:none"/>
</g>
<g transform="matrix(1, 0, 0, 1, 0, 237.6)">
<path stroke-width="0.5" stroke-opacity="1" stroke="#808080" fill="none" id="path4479" d="M37.1432,12.5221A18,18,0,0,1,34.7103,33.9337" style="stroke-linecap:round;stroke-linejoin:round;stroke-miterlimit:4;stroke-dasharray:none"/>
</g>
<g transform="matrix(1, 0, 0, 1, 0, 237.6)">
<path stroke-width="0.5" stroke-opacity="1" stroke="#808080" fill="none" id="path4483" d="M6.7056,31.7073A18,18,0,0,1,8.25826,9.51704" style="stroke-linecap:round;stroke-linejoin:round;stroke-miterlimit:4;stroke-dasharray:none"/>
</g>
<g transform="matrix(1, 0, 0, 1, 0, 237.6)">
<path stroke-width="0.5" stroke-opacity="1" stroke="#808080" fill="none" id="path4487" d="M6.37024,34.2528A19.8,19.8,0,0,1,5.28501,10.3812" style="stroke-linecap:round;stroke-linejoin:round;stroke-miterlimit:4;stroke-dasharray:none"/>
</g>
<g transform="matrix(1, 0, 0, 1, 0, 237.6)">
<path stroke-width="0.5" stroke-opacity="1" stroke="#808080" fill="none" id="path4489" d="m37.6301,9.97783a19.8,19.8,0,0,1,1.52777,20.7742" style="stroke-linecap:round;stroke-linejoin:round;stroke-miterlimit:4;stroke-dasharray:none"/>
</g>
<path stroke-width="0.72" stroke-opacity="0.35449733" stroke="#ffffff" fill="none" id="path4062" d="m16.56,351.36,0,-81.36" style="color:#000000;stroke-linecap:round;stroke-linejoin:miter;stroke-miterlimit:4;stroke-dasharray:none;stroke-dashoffset:0;marker:none;visibility:visible;display:inline;overflow:visible;enable-background:accumulate"/>
<path stroke-width="0.72" stroke-opacity="0.35449733" stroke="#ffffff" fill="none" id="path4064" d="m23.76,351.36,0,-81.36" style="color:#000000;stroke-linecap:round;stroke-linejoin:miter;stroke-miterlimit:4;stroke-dasharray:none;stroke-dashoffset:0;marker:none;visibility:visible;display:inline;overflow:visible;enable-background:accumulate"/>
<g transform="matrix(1, 0, 0, 1, 7.2, -86.4)">
<path stroke-width="1.44" stroke-opacity="1" stroke="#a1a1a1" fill="#aeaeae" id="path4036" d="m28.8,345.6a14.4,14.4,0,1,1,-28.8,0,14.4,14.4,0,1,1,28.8,0z" fill-opacity="1" style="stroke-linecap:round;stroke-linejoin:round;stroke-miterlimit:4;stroke-dasharray:none;display:inline"/>
</g>
<g transform="matrix(1, 0, 0, 1, -14.4, -57.6)">
<path stroke="none" fill="#2c2c2c" id="path4039" d="m46.8,316.8a10.8,10.8,0,1,1,-21.6,0,10.8,10.8,0,1,1,21.6,0z" fill-opacity="1"/>
</g>
<g transform="matrix(1, 0, 0, 1, 7.2, -86.4)">
<path stroke-width="0.72" stroke-opacity="1" stroke="#e7e7e7" fill="none" id="path3221" d="M0.726611,350.116A14.4,14.4,0,0,1,20.8121,332.706" style="stroke-linecap:round;stroke-linejoin:round;stroke-miterlimit:4;stroke-dasharray:none"/>
</g>
<g transform="matrix(1, 0, 0, 1, 7.2, -86.4)">
<path stroke-width="0.72" stroke-opacity="1" stroke="#4c4c4c" fill="none" id="path4041" d="M28.2705,341.731A14.4,14.4,0,0,1,5.86288,357.196" style="stroke-linecap:round;stroke-linejoin:round;stroke-miterlimit:4;stroke-dasharray:none;display:inline"/>
</g>
</g>
</g>
</g>
</g>
</g></svg>