<?xml version='1.0' encoding='UTF-8' standalone='no'?>
<!-- Created with Fritzing (http://www.fritzing.org/) -->
<svg xmlns:svg='http://www.w3.org/2000/svg' xmlns='http://www.w3.org/2000/svg' version='1.2' baseProfile='tiny' x='0in' y='0in' width='0.229542in' height='0.449153in' viewBox='0 0 16.527 32.339' >
<path stroke='#8c8c8c' stroke-width='2.16' stroke-linecap='round' stroke-linejoin='round' fill='none' d='M15.447,24.082L15.447,31.259' />
<path stroke='#8c8c8c' stroke-width='2.16' stroke-linecap='round' stroke-linejoin='round' fill='none' d='M8.26001,24.082L8.26001,31.259' />
<path stroke='#8c8c8c' stroke-width='2.16' stroke-linecap='round' stroke-linejoin='round' fill='none' d='M1.08,24.082L1.08,31.259' />
<g partID='854366830'><g  id="breadboard">
 <rect  fill="none" x="0" id="connector0pin" y="22.082" height="1" width="2.16"/>
 <rect  fill="none" x="7.181" id="connector1pin" y="22.082" height="1" width="2.159"/>
 <rect  fill="none" x="14.367" id="connector2pin" y="22.082" height="1" width="2.16"/>
 <g  stroke-width="2.16" stroke-linecap="round" fill="none" stroke="#8C8C8C" id="connector0leg" x1="1.08" y1="24.082" x2="1.08" y2="31.259"/>
 <g  stroke-width="2.16" stroke-linecap="round" fill="none" stroke="#8C8C8C" id="connector1leg" x1="8.26" y1="24.082" x2="8.26" y2="31.259"/>
 <g  stroke-width="2.16" stroke-linecap="round" fill="none" stroke="#8C8C8C" id="connector2leg" x1="15.447" y1="24.082" x2="15.447" y2="31.259"/>
 <rect  fill="#8C8C8C" x="7.177" id="rect9506" y="14.731" height="9.351" width="2.154"/>
 <path  fill="#8C8C8C" id="path9510" d="M3.287,14.731l0,3.315c0,0.424,-0.782,1.06,-1.198,1.426c-1.024,0.891,-2.088,1.818,-2.088,2.992l0,1.619l2.154,0c0,0,0,-1,0,-1.211c0,-0.517,0.904,-1.389,1.35,-1.769c0.997,-0.87,1.945,-1.69,1.945,-2.749L5.45,14.73L3.287,14.731L3.287,14.731z"/>
 <path  fill="#8C8C8C" id="path9514" d="M13.22,14.731l0,3.315c0,0.424,0.781,1.06,1.199,1.426c1.027,0.891,2.089,1.818,2.089,2.992l0,1.619l-2.153,0c0,0,0,-1,0,-1.211c0,-0.517,-0.904,-1.389,-1.351,-1.769c-0.998,-0.87,-1.944,-1.69,-1.944,-2.749L11.06,14.73L13.22,14.731L13.22,14.731z"/>
 <rect  fill="#1A1A1A" x="1.615" id="rect9553" y="4.659" height="10.07" width="13.278"/>
 <path  fill="#141414" id="path9555" d="M13.888,4.659l0,2.453l0,8.228l0,1.843c0.633,-0.714,1.005,-1.554,1.005,-2.453l0,0L14.893,4.659L13.888,4.659z"/>
 <path  fill="#242424" id="path9557" d="M2.621,4.659L1.616,4.659l0,10.07l0,0c0,0.899,0.373,1.739,1.005,2.453l0,-1.843L2.621,7.112L2.621,4.659z"/>
 <path  fill="#1F1F1F" id="path9559" d="M1.615,4.659L1.615,4.659c0,0.899,0.373,1.74,1.005,2.453l11.276,0c0.632,-0.713,1.005,-1.554,1.005,-2.453l0,0L1.615,4.659z"/>
 <path  fill="#141414" id="path9561" d="M8.255,0c-3.668,0,-6.64,2.086,-6.64,4.661l13.278,0C14.893,2.086,11.923,0,8.255,0z"/>
 <rect  x="2.621" id="rect9563" y="7.112" height="10.07" width="11.276"/>
 <g transform="matrix(1, 0, 0, 1, 5.8171, 11.9995)">
  <text  fill="#E6E6E6" id="label0" font-family="'OCRAStd'" font-size="3">LM</text>
 </g>
 <g transform="matrix(1, 0, 0, 1, 5.8752, 14.9995)">
  <text  fill="#E6E6E6" id="label0_1_" font-family="'OCRAStd'" font-size="3">35</text>
 </g>
</g>
</g></svg>