<?xml version='1.0' encoding='UTF-8' standalone='no'?>
<!-- Created with Fritzing (http://www.fritzing.org/) -->
<svg xmlns:svg='http://www.w3.org/2000/svg' xmlns='http://www.w3.org/2000/svg' version='1.2' baseProfile='tiny' x='0in' y='0in' width='1.4in' height='2.3in' viewBox='0 0 100.8 165.6' >
<g partID='854171670'><g transform="matrix(1, 0, 0, 1, 0, -122.4)">
<g id="breadboard">
<g>
<path stroke-width="5.04" stroke-opacity="1" stroke="#e6c739" fill="none" d="m50.4,194.4,0,79.2" id="path3846" style="color:#000000;stroke-linecap:butt;stroke-linejoin:miter;stroke-miterlimit:4;stroke-dasharray:none;stroke-dashoffset:0;marker:none;visibility:visible;display:inline;overflow:visible;enable-background:accumulate"/>
<path stroke-width="5.04" stroke-opacity="1" stroke="#d2382b" fill="none" d="m43.2,194.4,0,79.2" id="path3848" style="color:#000000;stroke-linecap:butt;stroke-linejoin:miter;stroke-miterlimit:4;stroke-dasharray:none;stroke-dashoffset:0;marker:none;visibility:visible;display:inline;overflow:visible;enable-background:accumulate"/>
<path stroke-width="5.04" stroke-opacity="1" stroke="#323232" fill="none" d="m57.6,194.4,0,79.2" id="path3850" style="color:#000000;stroke-linecap:butt;stroke-linejoin:miter;stroke-miterlimit:4;stroke-dasharray:none;stroke-dashoffset:0;marker:none;visibility:visible;display:inline;overflow:visible;enable-background:accumulate"/>
<path stroke-width="0.72" stroke-opacity="0.25" stroke="#ffffff" fill="none" d="m41.76,272.16,0,-72.36" id="path3852" style="color:#000000;stroke-linecap:round;stroke-linejoin:miter;stroke-miterlimit:4;stroke-dasharray:none;stroke-dashoffset:0;marker:none;visibility:visible;display:inline;overflow:visible;enable-background:accumulate"/>
<path stroke-width="0.72" stroke-opacity="0.25" stroke="#ffffff" fill="none" d="M48.96,272.16,48.96,199.8" id="path3854" style="color:#000000;stroke-linecap:round;stroke-linejoin:miter;stroke-miterlimit:4;stroke-dasharray:none;stroke-dashoffset:0;marker:none;visibility:visible;display:inline;overflow:visible;enable-background:accumulate"/>
<path stroke-width="0.72" stroke-opacity="0.25" stroke="#ffffff" fill="none" d="M56.16,272.16,56.16,199.8" id="path3856" style="color:#000000;stroke-linecap:round;stroke-linejoin:miter;stroke-miterlimit:4;stroke-dasharray:none;stroke-dashoffset:0;marker:none;visibility:visible;display:inline;overflow:visible;enable-background:accumulate"/>
<rect stroke="none" fill="#cccccc" x="42.12" id="rect3858" y="273.6" height="7.2" width="2.16" style="opacity:0.95;display:inline"/>
<rect stroke="none" fill="#cccccc" x="49.32" id="rect3900" y="273.6" height="7.2" width="2.16" style="opacity:0.95;display:inline"/>
<rect stroke="none" fill="#cccccc" x="56.52" id="rect3902" y="273.6" height="7.2" width="2.16" style="opacity:0.95;display:inline"/>
<rect stroke="none" fill="none" x="41.76" id="connector1pin" y="279.36" height="2.88" width="2.88" style="opacity:0.51583707;display:inline"/>
<rect stroke="none" fill="none" x="48.96" id="connector2pin" y="279.36" height="2.88" width="2.88" style="opacity:0.51583707;display:inline"/>
<rect stroke="none" fill="none" x="56.16" id="connector3pin" y="279.36" height="2.88" width="2.88" style="opacity:0.51583707;display:inline"/>
<path stroke="none" fill="#2ca02c" d="m3.6,129.6,0,64.8,93.6,0,0,-64.8,-93.6,0zM7.2,159.125c1.59058,0,2.875,1.28442,2.875,2.875,0,1.59058,-1.28442,2.875,-2.875,2.875,-1.59058,0,-2.875,-1.28442,-2.875,-2.875,0,-1.59058,1.28442,-2.875,2.875,-2.875zm86.4,0c1.59058,0,2.875,1.28442,2.875,2.875,0,1.59058,-1.28442,2.875,-2.875,2.875,-1.59058,0,-2.875,-1.28442,-2.875,-2.875,0,-1.59058,1.28442,-2.875,2.875,-2.875z" id="rect2999" style="display:inline"/>
<rect stroke-width="0.144" stroke-opacity="1" stroke="#000000" fill="#dbe3e2" x="14.4" id="rect3006" y="126" fill-opacity="1" height="72" width="72" style="fill-rule:evenodd;stroke-linecap:round;stroke-linejoin:miter;stroke-miterlimit:4;stroke-dasharray:none;display:inline"/>
<g transform="matrix(1, 0, 0, 1, -3.6, -86.4)">
<path stroke-width="10.8" stroke-opacity="0.39130435" stroke="#ffffff" fill="#b7c8be" d="m61.2944,228.069a21.6,21.6,0,0,1,12.417,11.498" id="path3826" fill-opacity="1" style="opacity:0.95;fill-rule:evenodd;stroke-linecap:butt;stroke-linejoin:miter;stroke-miterlimit:4;stroke-dasharray:none;display:inline"/>
</g>
<g transform="matrix(1, 0, 0, 1, -3.6, -86.4)">
<path stroke-width="0.144" stroke-opacity="0.48369565" stroke="#000000" fill="url(#radialGradient3947)" d="m90,248.4a36,36,0,1,1,-72,0,36,36,0,1,1,72,0z" id="path3780" fill-opacity="1" style="opacity:0.95;fill-rule:evenodd;stroke-linecap:round;stroke-linejoin:miter;stroke-miterlimit:4;stroke-dasharray:none;display:inline"/>
</g>
<g transform="matrix(1, 0, 0, 1, -3.6, -86.4)">
<path stroke-width="18" stroke-opacity="0.66847827" stroke="#ffffff" fill="none" d="m40.9324,236.021a18,18,0,0,1,4.22924,-3.30174" id="path3824" style="opacity:0.66515838;stroke-linecap:butt;stroke-linejoin:miter;stroke-miterlimit:4;stroke-dasharray:none;display:inline"/>
</g>
</g>
</g>
</g>
</g></svg>