<?xml version="1.0" encoding="UTF-8"?>
<svg version="1.1" xmlns="http://www.w3.org/2000/svg" width="290" height="584">
<path d="M0 0 C1.41039006 0.00484369 1.41039006 0.00484369 2.84927285 0.00978523 C5.9953517 0.02183524 9.14134223 0.04121333 12.28738403 0.06056213 C14.54439605 0.07070758 16.80141014 0.08040096 19.0584259 0.0896759 C25.18393683 0.11613027 31.30939952 0.14891528 37.4348731 0.1828258 C43.83703782 0.21719515 50.23922835 0.24575772 56.64141846 0.27493286 C67.38654422 0.3246826 78.13164533 0.3780156 88.8767395 0.43409729 C99.94280933 0.49184442 111.00888654 0.54742977 122.07498169 0.60011292 C122.75742734 0.60336263 123.43987298 0.60661235 124.1429988 0.60996055 C127.56672714 0.62625059 130.99045569 0.64249818 134.41418433 0.65872467 C162.80440593 0.79333274 191.19458651 0.93545404 219.58474731 1.08229065 C221.07154456 4.05588514 220.69587336 6.74528244 220.68240356 10.05885315 C220.68028114 11.0867244 220.68028114 11.0867244 220.67811584 12.13536072 C220.67251406 14.32604826 220.65996138 16.51663395 220.64724731 18.70729065 C220.64223254 20.19166417 220.63766959 21.6760393 220.63357544 23.16041565 C220.62254409 26.8010738 220.6052783 30.44167229 220.58474731 34.08229065 C216.9458121 36.38035673 213.90802008 36.30053087 209.66677856 36.2424469 C208.68000374 36.23464455 208.68000374 36.23464455 207.67329407 36.22668457 C205.58104952 36.20893065 203.48930326 36.17774588 201.39724731 36.14479065 C199.29452992 36.11719593 197.19187947 36.09251013 195.08906555 36.0736084 C193.18887224 36.05574227 191.28877573 36.02834481 189.38870239 36.00050354 C186.67973508 35.75857299 186.67973508 35.75857299 185.58474731 37.08229065 C185.49606433 40.03934385 185.46954436 42.97294121 185.48709106 45.9299469 C185.48850601 46.81637375 185.48992096 47.7028006 185.49137878 48.61608887 C185.49699516 51.45902319 185.5095504 54.30187996 185.52224731 57.14479065 C185.52726021 59.06731556 185.53182348 60.98984169 185.53591919 62.91236877 C185.54696991 67.63570614 185.56424549 72.35898523 185.58474731 77.08229065 C187.06853882 77.11201965 187.06853882 77.11201965 188.58230591 77.14234924 C192.24646809 77.21832521 195.91022895 77.30705417 199.57400513 77.39967346 C201.16083869 77.4379965 202.74776012 77.47284353 204.33474731 77.50416565 C206.61371297 77.54974496 208.892072 77.60774903 211.17068481 77.66822815 C211.88219696 77.67977936 212.59370911 77.69133057 213.32678223 77.70323181 C218.3570039 77.85454724 218.3570039 77.85454724 220.58474731 80.08229065 C221.84015997 85.79399889 221.73061391 91.83668803 221.71846008 97.66123962 C221.72072564 98.47535612 221.7229912 99.28947261 221.72532541 100.1282593 C221.73160633 102.82958536 221.73083991 105.53086049 221.73001099 108.23219299 C221.73300594 110.17936772 221.73640925 112.12654185 221.7401886 114.07371521 C221.74899289 119.34181391 221.75136505 124.60989635 221.75200438 129.87800169 C221.75271626 133.16913871 221.75485306 136.46027162 221.7575016 139.75140762 C221.76673915 151.23133354 221.77083798 162.71124786 221.77005005 174.19117737 C221.76944783 184.89826021 221.78003188 195.6052929 221.79579371 206.31236303 C221.80884837 215.50742212 221.81423491 224.70246476 221.81359464 233.89753306 C221.81333929 239.38883839 221.81621179 244.88009901 221.82677269 250.37139511 C221.83642018 255.52766575 221.83655602 260.68384857 221.82925606 265.84012222 C221.82820643 267.73523842 221.83059537 269.63036 221.83661652 271.52546692 C221.84428535 274.10549724 221.83972601 276.68522026 221.83198547 279.26524353 C221.83712904 280.02077369 221.8422726 280.77630385 221.84757203 281.55472887 C221.82272077 285.28412387 221.70950766 286.89515014 219.58474731 290.08229065 C216.32693481 290.5940094 216.32693481 290.5940094 212.45974731 290.76979065 C211.17841919 290.83553284 209.89709106 290.90127502 208.57693481 290.9690094 C207.58951294 291.00639221 206.60209106 291.04377502 205.58474731 291.08229065 C205.58669554 292.14025156 205.58669554 292.14025156 205.58868313 293.21958542 C205.61795223 310.42342372 205.60841172 327.62680875 205.55628109 344.83059311 C205.53199515 353.15044581 205.52058982 361.46993532 205.54006958 369.78981018 C205.55702546 377.04594772 205.54924073 384.30157697 205.51239973 391.55764794 C205.49375902 395.39581866 205.48706448 399.23313083 205.51005363 403.07129669 C205.53135488 406.69316276 205.51927089 410.3134664 205.48290253 413.93519783 C205.47168746 415.8795129 205.49467938 417.82393402 205.51914978 419.76812744 C205.39604568 427.86320165 203.54585457 432.45902707 199.17000294 439.2062664 C196.59146494 443.88433706 196.62060729 448.19218088 196.71414185 453.43458557 C196.70497238 454.49787079 196.69580292 455.56115601 196.68635559 456.65666199 C196.66427588 460.12612272 196.69067669 463.59336379 196.71755981 467.0627594 C196.71070652 469.48703088 196.70063569 471.91129519 196.6875 474.33554077 C196.6610262 480.68269451 196.67512075 487.02909631 196.69882202 493.37623596 C196.72055252 501.12054876 196.69634002 508.8648288 196.67677116 516.609128 C196.66211145 522.62553104 196.65507566 528.64161269 196.67095947 534.65802002 C196.67226364 535.75746445 196.67356781 536.85690887 196.6749115 537.9896698 C196.67756614 540.05108528 196.68402962 542.11250047 196.69487 544.17388916 C196.6951973 545.0750647 196.6955246 545.97624023 196.69586182 546.90472412 C196.69982059 548.08566792 196.69982059 548.08566792 196.70385933 549.29046917 C196.58474731 551.08229065 196.58474731 551.08229065 195.58474731 552.08229065 C192.90743352 552.18210279 190.26170557 552.2210894 187.58474731 552.20729065 C186.83451294 552.21115784 186.08427856 552.21502502 185.31130981 552.2190094 C179.71135785 552.20890118 179.71135785 552.20890118 178.58474731 551.08229065 C178.49571905 549.6638122 178.47616036 548.24090039 178.48468018 546.81965637 C178.48764099 545.89995056 178.49060181 544.98024475 178.49365234 544.03266907 C178.50196075 543.01553833 178.51026917 541.99840759 178.51882935 540.95045471 C178.52583862 539.35294373 178.52583862 539.35294373 178.5329895 537.72315979 C178.5435224 535.40137483 178.55619479 533.07959885 178.57071304 530.75783539 C178.59263667 527.08504075 178.60677995 523.41229698 178.6184082 519.73945618 C178.65209643 509.29344174 178.69362627 498.84751141 178.75613403 488.40162659 C178.79376034 482.02033959 178.81680002 475.63914046 178.83044052 469.25775909 C178.83850484 466.82245692 178.85212775 464.38716667 178.87137222 461.95192719 C178.89781695 458.54507602 178.90574169 455.13864569 178.90945435 451.73170471 C178.92798965 450.21815399 178.92798965 450.21815399 178.94689941 448.67402649 C178.93221126 443.56939746 178.77107674 440.30159617 175.58474731 436.08229065 C175.58474731 435.42229065 175.58474731 434.76229065 175.58474731 434.08229065 C174.92474731 434.08229065 174.26474731 434.08229065 173.58474731 434.08229065 C171.2985486 430.65299258 171.33702159 429.43711048 171.34423828 425.40658569 C171.34011429 423.63342735 171.34011429 423.63342735 171.33590698 421.82444763 C171.34669281 419.87697128 171.34669281 419.87697128 171.35769653 417.89015198 C171.35826062 416.51041675 171.35794413 415.13068092 171.35681152 413.75094604 C171.35623693 410.00325689 171.3680085 406.25569536 171.38195944 402.5080359 C171.39444898 398.59225754 171.39563589 394.67647636 171.39801025 390.76068115 C171.40423025 383.34464924 171.42064809 375.92867619 171.44070923 368.51267022 C171.46305207 360.07020607 171.4740576 351.62773913 171.4841001 343.18525279 C171.50501388 325.81755858 171.54169659 308.44994507 171.58474731 291.08229065 C154.09474731 290.75229065 136.60474731 290.42229065 118.58474731 290.08229065 C118.77037231 296.45541565 118.95599731 302.82854065 119.14724731 309.39479065 C119.68257703 333.58810223 119.69767478 357.78521069 119.5534668 381.98301697 C119.52960006 386.13237634 119.51985698 390.28140622 119.52203369 394.43083191 C119.52367242 399.40133639 119.49560656 404.37083961 119.44569778 409.34108543 C119.43177099 411.1962016 119.42790155 413.05142411 119.43473434 414.90657997 C119.44220689 417.47681959 119.41233958 420.04412725 119.37356567 422.61402893 C119.38421838 423.35772893 119.39487108 424.10142893 119.4058466 424.86766529 C119.29170998 429.3066086 118.48041033 431.52131602 115.58177185 434.91993713 C111.6173423 439.75192858 111.75088969 444.08135346 111.84353638 450.14820862 C111.83611923 451.22881058 111.82870209 452.30941254 111.82106018 453.42276001 C111.80323635 456.97386233 111.82695882 460.52342955 111.85037231 464.07447815 C111.8441976 466.5469093 111.83510167 469.01933473 111.82321167 471.491745 C111.79850869 477.9848044 111.80770752 484.47734836 111.82577515 490.97041321 C111.84921069 501.38424606 111.82208366 511.79804658 111.79305267 522.21184158 C111.78791919 525.8537226 111.79780148 529.49533189 111.80990601 533.13719177 C111.80971755 535.35570785 111.80922572 537.57422394 111.80838013 539.79273987 C111.81564621 540.81091293 111.82291229 541.829086 111.83039856 542.87811279 C111.82790604 543.80327194 111.82541351 544.72843109 111.82284546 545.68162537 C111.82510761 546.4879434 111.82736977 547.29426144 111.82970047 548.12501335 C111.58474731 550.08229065 111.58474731 550.08229065 109.58474731 552.08229065 C104.61044828 553.50351894 99.50045809 553.72086091 94.58474731 552.08229065 C93.4099566 549.73270922 93.46492751 548.36467678 93.47363281 545.74650574 C93.47412376 544.3800592 93.47412376 544.3800592 93.47462463 542.98600769 C93.47986649 541.98346954 93.48510834 540.9809314 93.49050903 539.94801331 C93.49329672 537.76276157 93.49596647 535.57750969 93.49853516 533.39225769 C93.50158535 532.22861317 93.50463554 531.06496864 93.50777817 529.86606216 C93.51910351 523.70763831 93.49861647 517.549289 93.48318481 511.3908844 C93.46492049 503.55204342 93.45611342 495.71359457 93.48513794 487.87477112 C93.50774403 481.54386261 93.49615261 475.21380879 93.4621315 468.88296127 C93.45538206 466.4758008 93.4609873 464.06857116 93.47948837 461.66147232 C93.50381162 458.27687382 93.48431785 454.89501982 93.45535278 451.51051331 C93.47274002 450.52821747 93.49012726 449.54592163 93.50804138 448.53385925 C93.40439221 442.66684405 92.28815227 439.18957958 89.08000183 434.24491882 C84.80975853 427.48833708 84.63169061 421.90118756 84.79006958 414.05201721 C84.79204955 412.69065962 84.79092515 411.32929458 84.78697205 409.96794128 C84.78498265 406.31107002 84.82581924 402.65584163 84.87498975 398.99934864 C84.91907322 395.16378161 84.92288614 391.32816716 84.9311676 387.49238586 C84.95283028 380.24631957 85.01014346 373.00100217 85.08061403 365.75526404 C85.15915191 357.4989009 85.1974175 349.24249993 85.23248208 340.98585558 C85.30543669 324.01749445 85.43368716 307.05016354 85.58474731 290.08229065 C60.33974731 290.57729065 60.33974731 290.57729065 34.58474731 291.08229065 C34.58063843 295.21035217 34.57652954 299.3384137 34.57229614 303.59156799 C34.55508632 317.2421732 34.51081482 330.89257867 34.45265675 344.54306602 C34.4180598 352.81805215 34.3926582 361.09287262 34.38919067 369.36793518 C34.38614338 376.58371258 34.36555059 383.79919453 34.32422274 391.01485789 C34.30295998 394.83267606 34.29025716 398.65007493 34.29859352 402.46795273 C34.30617682 406.0682405 34.29014018 409.6676817 34.25668716 413.26781464 C34.24463007 415.20532059 34.25698714 417.14293141 34.27030945 419.08042908 C34.17203431 426.63324278 33.23009175 434.43694621 27.58474731 440.08229065 C27.46140449 441.72956978 27.40683512 443.38204367 27.37942505 445.03370667 C27.35947983 446.10160934 27.33953461 447.16951202 27.31898499 448.26977539 C27.29391624 450.03515404 27.29391624 450.03515404 27.26834106 451.8361969 C27.24755997 453.0601265 27.22677887 454.28405609 27.20536804 455.54507446 C27.15037227 458.88483813 27.10016132 462.22460384 27.05252075 465.56447601 C27.02235843 467.63715486 26.99007026 469.70978959 26.95706177 471.78242493 C26.62351285 492.80316618 26.49062751 513.81867166 26.62161255 534.84230042 C26.62587753 535.7910051 26.63014252 536.73970978 26.63453674 537.71716309 C26.64274767 539.47212325 26.65511808 541.22707113 26.67253113 542.98196411 C26.68656454 546.28194159 26.63616612 548.92803422 25.58474731 552.08229065 C21.63827114 553.07074016 18.31081768 553.0442097 14.27224731 552.64479065 C12.6692981 552.49203674 12.6692981 552.49203674 11.03396606 552.3361969 C10.22572388 552.25240784 9.41748169 552.16861877 8.58474731 552.08229065 C7.55198686 546.20537987 7.49201994 540.5492115 7.58230591 534.59230042 C7.60529395 532.45505874 7.62818799 530.31781606 7.65100098 528.18057251 C7.6648521 527.05532732 7.67870323 525.93008213 7.69297409 524.7707386 C7.76176475 518.7881607 7.79744331 512.80534511 7.83865356 506.82252502 C7.89262006 499.2202311 7.95652119 491.61844152 8.05789185 484.01661682 C8.13909955 477.8617843 8.18596286 471.70752477 8.20994949 465.55221367 C8.22536375 463.2114037 8.25335351 460.87064072 8.29429245 458.53013802 C8.34995884 455.25328491 8.36170379 451.9789401 8.36355591 448.70167542 C8.39029388 447.74090591 8.41703186 446.78013641 8.44458008 445.79025269 C8.44466912 440.57205652 8.44466912 440.57205652 6.00186443 436.13162804 C5.36954309 435.52011705 4.73722174 434.90860607 4.08573914 434.27856445 C-0.2114457 429.9208735 -0.23799563 426.15773993 -0.28619385 420.2023468 C-0.26102692 418.92200562 -0.23585999 417.64166443 -0.20993042 416.32252502 C-0.20795303 414.94205324 -0.20906986 413.5615741 -0.21302795 412.18110657 C-0.21502736 408.45377241 -0.17402506 404.72803167 -0.12501025 401.00106621 C-0.08109687 397.09874031 -0.07712709 393.19637336 -0.0688324 389.2938385 C-0.04712038 381.91306697 0.01026088 374.53302572 0.08061403 367.15257502 C0.15899675 358.74636513 0.19737879 350.34011941 0.23248208 341.93363476 C0.30554838 324.64943176 0.42858418 307.36593855 0.58474731 290.08229065 C-0.47486206 290.10549377 -1.53447144 290.1286969 -2.62619019 290.15260315 C-4.01420399 290.17136009 -5.40222539 290.18956037 -6.79025269 290.20729065 C-7.48892456 290.22404846 -8.18759644 290.24080627 -8.90744019 290.2580719 C-10.74422755 290.27573332 -12.58127231 290.18532325 -14.41525269 290.08229065 C-17.02670416 287.47083917 -16.65574221 285.6473073 -16.67521095 282.09113121 C-16.6695883 281.24532808 -16.66396564 280.39952496 -16.65817261 279.52809143 C-16.66004263 278.63307734 -16.66191265 277.73806324 -16.66383934 276.81592751 C-16.66751482 273.80306958 -16.6566569 270.79044099 -16.64572144 267.77760315 C-16.6449482 265.63040684 -16.64496084 263.48321012 -16.64570618 261.33601379 C-16.64475339 255.50710975 -16.63045621 249.67830893 -16.61289215 243.8494339 C-16.60278705 240.21963494 -16.59603536 236.58984583 -16.59048462 232.96003723 C-16.56321393 215.3339671 -16.50037708 197.70817251 -16.41525269 180.08229065 C-16.40927818 178.8407724 -16.40330368 177.59925415 -16.39714813 176.32011414 C-16.31604295 159.80273871 -16.20571545 143.28576432 -16.06692886 126.76877594 C-16.04020031 123.45078841 -16.01679805 120.1327916 -15.99420166 116.81477356 C-15.95813057 111.62195534 -15.91190987 106.42932773 -15.85737801 101.23667145 C-15.83883424 99.33295882 -15.82360017 97.42921076 -15.81185722 95.52544403 C-15.79519978 92.94182214 -15.76633872 90.35862922 -15.73410034 87.77516174 C-15.7319411 87.01671022 -15.72978186 86.25825871 -15.72755718 85.47682381 C-15.64370661 80.31074457 -15.64370661 80.31074457 -13.41525269 78.08229065 C-10.9788593 77.90748384 -8.65496432 77.85037641 -6.21994019 77.88697815 C-4.9255603 77.89197327 -3.63118042 77.89696838 -2.2975769 77.90211487 C-0.64515991 77.92032288 1.00725708 77.93853088 2.70974731 77.95729065 C7.94849731 77.99854065 13.18724731 78.03979065 18.58474731 78.08229065 C18.58474731 63.89229065 18.58474731 49.70229065 18.58474731 35.08229065 C12.64474731 35.57729065 12.64474731 35.57729065 6.58474731 36.08229065 C3.24028426 36.21324854 -0.07222742 36.31040505 -3.41525269 36.33229065 C-4.23380737 36.35291565 -5.05236206 36.37354065 -5.89572144 36.39479065 C-6.68591675 36.3999469 -7.47611206 36.40510315 -8.29025269 36.41041565 C-9.3382605 36.4244342 -9.3382605 36.4244342 -10.40744019 36.43873596 C-13.15988426 35.95009682 -14.4676623 35.08323967 -16.41525269 33.08229065 C-16.85348511 30.63380432 -16.85348511 30.63380432 -16.77072144 27.7502594 C-16.75331909 26.70418518 -16.73591675 25.65811096 -16.71798706 24.58033752 C-16.66094604 22.94161682 -16.66094604 22.94161682 -16.60275269 21.26979065 C-16.55013382 19.11755091 -16.50182522 16.96520066 -16.45822144 14.8127594 C-16.42752563 13.85780579 -16.39682983 12.90285217 -16.36520386 11.91896057 C-16.33555949 8.99795475 -16.33555949 8.99795475 -17.03756714 5.84913635 C-17.16220337 4.93607727 -17.2868396 4.02301819 -17.41525269 3.08229065 C-13.11732491 -1.21563713 -5.73647107 -0.04467946 0 0 Z M74.58474731 36.08229065 C68.95829562 43.84291368 68.60897825 52.79257087 69.58474731 62.08229065 C72.48518982 72.40163361 77.28491504 79.15231371 86.34255981 84.82447815 C94.56163344 89.43517799 104.91754718 89.29921862 113.89724731 86.95729065 C122.58449008 83.91605169 128.46839622 78.26369874 132.58474731 70.08229065 C136.42375877 59.91253199 136.57867803 51.23779824 132.58474731 41.08229065 C128.294747 33.50329009 121.67336066 26.82748295 113.33865356 23.9690094 C98.22600107 20.39921531 84.54711652 23.68793131 74.58474731 36.08229065 Z " fill="#858285" transform="translate(43.415252685546875,15.917709350585938)"/>
<path d="M0 0 C76.56 0 153.12 0 232 0 C232 55.44 232 110.88 232 168 C155.44 168 78.88 168 0 168 C0 112.56 0 57.12 0 0 Z " fill="#201B1C" transform="translate(30,137)"/>
<path d="M0 0 C10.89 0 21.78 0 33 0 C33.02255024 11.32611985 33.04091463 22.65222491 33.05181217 33.97836208 C33.05704119 39.23696664 33.06413918 44.4955551 33.07543945 49.75415039 C33.08626766 54.82453127 33.09227669 59.89489662 33.09487724 64.96528816 C33.09673161 66.90426948 33.10035245 68.84324991 33.10573006 70.78222466 C33.1129396 73.4882176 33.11399098 76.19414556 33.11352539 78.90014648 C33.11712067 79.71006546 33.12071594 80.51998444 33.12442017 81.35444641 C33.11405216 86.88594784 33.11405216 86.88594784 32 88 C30.16505514 88.09646028 28.32635413 88.12187344 26.48887634 88.12025452 C25.2926918 88.12162918 24.09650726 88.12300385 22.86407471 88.12442017 C21.52648901 88.12088057 20.18890356 88.11724575 18.85131836 88.11352539 C17.45217389 88.11324352 16.05302927 88.11340125 14.65388489 88.1139679 C10.84413541 88.11425588 7.03441714 88.10835898 3.22467494 88.10139394 C-0.75251309 88.09516059 -4.72970176 88.09455662 -8.70689392 88.09336853 C-16.24338539 88.09025516 -23.77986243 88.08204169 -31.31634754 88.07201904 C-39.89419828 88.06085808 -48.4720497 88.0553475 -57.0499059 88.05032361 C-74.69994546 88.03985908 -92.34997157 88.02225953 -110 88 C-110 85.03 -110 82.06 -110 79 C-73.7 79 -37.4 79 0 79 C0 52.93 0 26.86 0 0 Z " fill="#020001" transform="translate(212,172)"/>
<path d="M0 0 C0.33 0 0.66 0 1 0 C1 9.9 1 19.8 1 30 C-16.325 30.495 -16.325 30.495 -34 31 C-34 45.52 -34 60.04 -34 75 C-22.19736497 74.96039783 -22.19736497 74.96039783 -10.39477539 74.90991211 C-8.92073641 74.90699291 -7.44669663 74.90444436 -5.97265625 74.90234375 C-5.20046753 74.89722778 -4.42827881 74.89211182 -3.63269043 74.88684082 C-1.75474813 74.88653026 0.12309253 74.93766431 2 75 C5.17657916 78.17657916 4.11862675 87.00075752 4.1384055 91.33002222 C4.1360826 92.44324096 4.1360826 92.44324096 4.13371277 93.57894897 C4.13597833 94.39306547 4.13824388 95.20718196 4.14057809 96.04596865 C4.14685901 98.74729471 4.14609259 101.44856984 4.14526367 104.14990234 C4.14825863 106.09707707 4.15166193 108.0442512 4.15544128 109.99142456 C4.16424558 115.25952326 4.16661773 120.5276057 4.16725707 125.79571104 C4.16796895 129.08684806 4.17010575 132.37798097 4.17275429 135.66911697 C4.18199184 147.14904289 4.18609066 158.62895721 4.18530273 170.10888672 C4.18470052 180.81596956 4.19528457 191.52300225 4.2110464 202.23007238 C4.22410106 211.42513147 4.22948759 220.62017411 4.22884732 229.81524241 C4.22859197 235.30654774 4.23146447 240.79780836 4.24202538 246.28910446 C4.25167287 251.4453751 4.2518087 256.60155792 4.24450874 261.75783157 C4.24345911 263.65294777 4.24584805 265.54806935 4.2518692 267.44317627 C4.25953804 270.02320659 4.2549787 272.60292962 4.24723816 275.18295288 C4.25238172 275.93848304 4.25752529 276.6940132 4.26282471 277.47243822 C4.23797346 281.20183322 4.12476034 282.81285949 2 286 C-1.2578125 286.51171875 -1.2578125 286.51171875 -5.125 286.6875 C-6.40632812 286.75324219 -7.68765625 286.81898438 -9.0078125 286.88671875 C-9.99523437 286.92410156 -10.98265625 286.96148437 -12 287 C-12.00331015 287.71360341 -12.00662029 288.42720682 -12.01003075 289.16243458 C-12.09119483 306.51323232 -12.18326549 323.86393766 -12.28752708 341.21461201 C-12.33768292 349.60521427 -12.38412545 357.99580661 -12.421875 366.38647461 C-12.45478076 373.69842113 -12.49460405 381.01029136 -12.54279006 388.32215375 C-12.56806921 392.19495809 -12.58984625 396.06771174 -12.60334396 399.94057655 C-12.61615156 403.58409958 -12.63819166 407.22744884 -12.66738319 410.87087631 C-12.68080914 412.84908967 -12.68438299 414.82736215 -12.68769836 416.80561829 C-12.69886185 417.97930969 -12.71002533 419.1530011 -12.7215271 420.36225891 C-12.72705786 421.38452733 -12.73258862 422.40679575 -12.73828697 423.460042 C-13 426 -13 426 -15 429 C-15.66 429 -16.32 429 -17 429 C-17.33 405.9 -17.66 382.8 -18 359 C-25.92 358.67 -33.84 358.34 -42 358 C-42 381.43 -42 404.86 -42 429 C-42.66 429 -43.32 429 -44 429 C-44 381.48 -44 333.96 -44 285 C-29.15 285 -14.3 285 1 285 C1 229.56 1 174.12 1 117 C-75.56 117 -152.12 117 -231 117 C-231 103.47 -231 89.94 -231 76 C-230.67 76 -230.34 76 -230 76 C-230 89.2 -230 102.4 -230 116 C-154.43 116 -78.86 116 -1 116 C-1 103.46 -1 90.92 -1 78 C-12.22 78 -23.44 78 -35 78 C-35.95162372 75.14512885 -36.12163139 73.39545683 -36.11352539 70.43676758 C-36.11344986 69.51603958 -36.11337433 68.59531158 -36.11329651 67.64668274 C-36.10813522 66.65597275 -36.10297394 65.66526276 -36.09765625 64.64453125 C-36.09553383 63.11937141 -36.09553383 63.11937141 -36.09336853 61.56340027 C-36.08776707 58.31307036 -36.07521432 55.06280912 -36.0625 51.8125 C-36.05748519 49.61002704 -36.05292225 47.40755299 -36.04882812 45.20507812 C-36.03864769 39.80333762 -36.01907246 34.40174575 -36 29 C-24.12 29 -12.24 29 0 29 C0 19.43 0 9.86 0 0 Z " fill="#757376" transform="translate(261,20)"/>
<path d="M0 0 C7.92 0 15.84 0 24 0 C24 22.11 24 44.22 24 67 C15.75 67 7.5 67 -1 67 C-1.02256793 58.5595934 -1.04092492 50.11921015 -1.05181217 41.67878151 C-1.05703678 37.7598013 -1.0641268 33.84084274 -1.07543945 29.921875 C-1.08628329 26.14177614 -1.09228002 22.36169814 -1.09487724 18.58158493 C-1.09672878 17.13745164 -1.10034424 15.69331953 -1.10573006 14.2491951 C-1.1129602 12.23075723 -1.11340823 10.21229847 -1.11352539 8.19384766 C-1.115746 7.04357086 -1.11796661 5.89329407 -1.12025452 4.7081604 C-1 2 -1 2 0 0 Z " fill="#838284" transform="translate(220,307)"/>
<path d="M0 0 C7.92 0 15.84 0 24 0 C24 22.11 24 44.22 24 67 C16.08 67 8.16 67 0 67 C0 44.89 0 22.78 0 0 Z " fill="#878285" transform="translate(134,307)"/>
<path d="M0 0 C7.92 0 15.84 0 24 0 C24 22.11 24 44.22 24 67 C16.08 67 8.16 67 0 67 C0 44.89 0 22.78 0 0 Z " fill="#848285" transform="translate(49,307)"/>
<path d="M0 0 C0.33 0 0.66 0 1 0 C1 55.44 1 110.88 1 168 C44.23 168 87.46 168 132 168 C131.505 237.795 131.505 237.795 131 309 C130.67 309 130.34 309 130 309 C129.67 286.23 129.34 263.46 129 240 C120.42 240.33 111.84 240.66 103 241 C101.88331761 237.64995282 101.8864058 235.16231946 101.90234375 231.63256836 C101.90564697 230.31788071 101.9089502 229.00319305 101.91235352 227.64866638 C101.91647247 226.94653959 101.92059143 226.2444128 101.92483521 225.52100945 C101.93759614 223.32328701 101.9441135 221.1256249 101.94897461 218.9278717 C101.96040326 214.2643874 101.97965178 209.6009528 102 204.9375 C102.02357253 199.53065408 102.04396926 194.1238365 102.05593872 188.71695137 C102.06243593 186.54872485 102.0749428 184.38058486 102.08764648 182.21238708 C102.09094971 180.90085159 102.09425293 179.5893161 102.09765625 178.23803711 C102.10551147 176.4995475 102.10551147 176.4995475 102.11352539 174.72593689 C102.18784822 172.0343557 102.18784822 172.0343557 101 170 C83.84 170 66.68 170 49 170 C48.98018066 174.15948242 48.96036133 178.31896484 48.93994141 182.60449219 C48.87312073 196.3269336 48.79558038 210.04929672 48.71247292 223.77164841 C48.6623338 232.09384063 48.61589104 240.41602293 48.578125 248.73828125 C48.54520189 255.99127397 48.50536893 263.24419005 48.45720994 270.49709821 C48.43194809 274.33807628 48.4101659 278.17900353 48.39665604 282.02004242 C48.38383279 285.63484175 48.36177566 289.24946674 48.33261681 292.86417007 C48.31921436 294.82429907 48.31562003 296.78448742 48.31230164 298.74465942 C48.30113815 299.91131134 48.28997467 301.07796326 48.2784729 302.27996826 C48.27017676 303.80092669 48.27017676 303.80092669 48.26171303 305.35261154 C47.99568219 308.0436773 47.37748143 309.697414 46 312 C45.34 312 44.68 312 44 312 C44 288.24 44 264.48 44 240 C35.42 240.33 26.84 240.66 18 241 C18 217.24 18 193.48 18 169 C12.06 169 6.12 169 0 169 C0 113.23 0 57.46 0 0 Z M20 170 C20 192.11 20 214.22 20 237 C27.92 237 35.84 237 44 237 C44 214.89 44 192.78 44 170 C36.08 170 28.16 170 20 170 Z M105 170 C105 192.11 105 214.22 105 237 C112.92 237 120.84 237 129 237 C129 214.89 129 192.78 129 170 C121.08 170 113.16 170 105 170 Z " fill="#848184" transform="translate(29,137)"/>
<path d="M0 0 C1.08667969 0.01804688 2.17335937 0.03609375 3.29296875 0.0546875 C4.54013672 0.08949219 4.54013672 0.08949219 5.8125 0.125 C5.8125 0.785 5.8125 1.445 5.8125 2.125 C6.740625 2.310625 6.740625 2.310625 7.6875 2.5 C9.8125 3.125 9.8125 3.125 11.8125 5.125 C11.8125 6.115 11.8125 7.105 11.8125 8.125 C12.4725 8.125 13.1325 8.125 13.8125 8.125 C14.1425 13.075 14.4725 18.025 14.8125 23.125 C18.4425 23.125 22.0725 23.125 25.8125 23.125 C26.3075 24.61 26.3075 24.61 26.8125 26.125 C28.1325 25.795 29.4525 25.465 30.8125 25.125 C31.1425 22.485 31.4725 19.845 31.8125 17.125 C31.05324219 17.20878906 30.29398438 17.29257813 29.51171875 17.37890625 C28.51785156 17.48074219 27.52398437 17.58257812 26.5 17.6875 C25.51386719 17.79191406 24.52773437 17.89632812 23.51171875 18.00390625 C20.8125 18.125 20.8125 18.125 17.8125 17.125 C18.04036458 15.33463542 18.26822917 13.54427083 18.49609375 11.75390625 C18.9622649 7.8806571 19.38582463 4.0027724 19.8125 0.125 C23.12498187 0.09611854 26.43743167 0.07824201 29.75 0.0625 C30.69552734 0.05412109 31.64105469 0.04574219 32.61523438 0.03710938 C33.96391602 0.03227539 33.96391602 0.03227539 35.33984375 0.02734375 C36.58882446 0.01948853 36.58882446 0.01948853 37.86303711 0.01147461 C39.8125 0.125 39.8125 0.125 40.8125 1.125 C40.95365161 3.79558851 40.85497107 6.44932238 40.8125 9.125 C39.8225 9.455 38.8325 9.785 37.8125 10.125 C38.4725 11.115 39.1325 12.105 39.8125 13.125 C42.12740561 17.24038776 42.71678356 20.49249219 41.8125 25.125 C40.59314953 27.93722166 39.13065393 30.10691426 36.8125 32.125 C33.70601274 32.99441991 30.82277452 32.83937595 27.625 32.625 C26.80580078 32.60179687 25.98660156 32.57859375 25.14257812 32.5546875 C19.24470386 32.34110193 19.24470386 32.34110193 16.8125 31.125 C16.8125 30.135 16.8125 29.145 16.8125 28.125 C15.4925 28.125 14.1725 28.125 12.8125 28.125 C12.8125 28.785 12.8125 29.445 12.8125 30.125 C11.4925 30.125 10.1725 30.125 8.8125 30.125 C8.8125 30.785 8.8125 31.445 8.8125 32.125 C6.39553128 32.17911124 3.97978213 32.21872278 1.5625 32.25 C0.88058594 32.26675781 0.19867188 32.28351563 -0.50390625 32.30078125 C-7.3676905 32.36741993 -7.3676905 32.36741993 -10.1875 30.125 C-12.85198707 25.71220595 -12.45063752 20.92559568 -12.375 15.9375 C-12.37435547 15.11830078 -12.37371094 14.29910156 -12.37304688 13.45507812 C-12.32824248 7.40648496 -12.32824248 7.40648496 -11.1875 5.125 C-10.5275 5.125 -9.8675 5.125 -9.1875 5.125 C-9.1875 4.135 -9.1875 3.145 -9.1875 2.125 C-5.66070901 -0.22619399 -4.15870515 -0.08943452 0 0 Z " fill="#E5E1E3" transform="translate(164.1875,198.875)"/>
<path d="M0 0 C0.99 0 1.98 0 3 0 C3.33 23.43 3.66 46.86 4 71 C12.25 71 20.5 71 29 71 C25.25549268 72.87225366 24.14972809 73.24550933 20.234375 73.1953125 C19.34492187 73.18886719 18.45546875 73.18242187 17.5390625 73.17578125 C16.15847656 73.15064453 16.15847656 73.15064453 14.75 73.125 C13.34621094 73.11146484 13.34621094 73.11146484 11.9140625 73.09765625 C9.60911343 73.07413636 7.3046884 73.04126853 5 73 C5.10748463 81.94474825 5.22011465 90.8894125 5.33933926 99.83401203 C5.39453599 103.9872148 5.44795082 108.14042465 5.49731445 112.29370117 C5.54500591 116.3007999 5.59735049 120.30781314 5.65294075 124.3148098 C5.67334263 125.8446153 5.69205929 127.37444423 5.70907402 128.90429115 C5.73316605 131.04476012 5.76321392 133.18506793 5.79467773 135.32543945 C5.81022202 136.54455521 5.8257663 137.76367096 5.84178162 139.01972961 C5.87064557 142.05441943 5.87064557 142.05441943 7 145 C7.66 145 8.32 145 9 145 C9 145.66 9 146.32 9 147 C9.66 147 10.32 147 11 147 C11 183.63 11 220.26 11 258 C13.97 258 16.94 258 20 258 C19.99214478 256.46291382 19.99214478 256.46291382 19.98413086 254.89477539 C19.96608031 251.10604724 19.9545678 247.31732291 19.94506836 243.52856445 C19.94002826 241.88630536 19.93319622 240.24405077 19.92456055 238.60180664 C19.91248074 236.24624521 19.90676861 233.89074291 19.90234375 231.53515625 C19.89718246 230.79660904 19.89202118 230.05806183 19.88670349 229.2971344 C19.8865075 227.53101912 19.93805281 225.76502854 20 224 C20.33 223.67 20.66 223.34 21 223 C21.1241622 220.73079775 21.17803748 218.4577355 21.20532227 216.18530273 C21.21522186 215.47314606 21.22512146 214.76098938 21.23532104 214.0272522 C21.26702212 211.66273372 21.29172724 209.29819511 21.31640625 206.93359375 C21.33696836 205.29833948 21.35796463 203.66309062 21.37937927 202.02784729 C21.43467672 197.71571214 21.48405201 193.40352842 21.53222656 189.09130859 C21.58238572 184.69429176 21.63810087 180.2973458 21.69335938 175.90039062 C21.80103473 167.26698693 21.90245871 158.6335241 22 150 C22.66 150 23.32 150 24 150 C24 186.63 24 223.26 24 261 C18.72 261 13.44 261 8 261 C7 260 7 260 6.89650536 258.15015316 C6.91152564 256.9282319 6.91152564 256.9282319 6.92684937 255.68162537 C6.93559082 254.74942673 6.94433228 253.81722809 6.95333862 252.85678101 C6.96793121 251.82566193 6.9825238 250.79454285 6.99755859 249.73217773 C7.02057101 247.4933636 7.04346365 245.25454822 7.06625366 243.01573181 C7.08010479 241.82150038 7.09395592 240.62726894 7.10822678 239.39684868 C7.17647158 233.09478987 7.21266516 226.79251747 7.25390625 220.49023438 C7.30785088 212.45989246 7.3706689 204.43002927 7.47314453 196.40014648 C7.55435228 189.92155556 7.60122244 183.44350986 7.62520218 176.96446419 C7.64063166 174.49527046 7.6686468 172.02612176 7.70954514 169.55721855 C7.76519974 166.09534501 7.77695658 162.6358469 7.77880859 159.17358398 C7.80554657 158.15663452 7.83228455 157.13968506 7.85983276 156.09191895 C7.88457033 150.66465553 7.88457033 150.66465553 5.41711712 146.01546669 C4.4686351 145.09782067 4.4686351 145.09782067 3.50099182 144.16163635 C-0.80877523 139.82526234 -0.8228058 136.06768281 -0.87094116 130.12005615 C-0.84577423 128.83971497 -0.8206073 127.55937378 -0.79467773 126.24023438 C-0.79270034 124.85976259 -0.79381717 123.47928345 -0.79777527 122.09881592 C-0.79977467 118.37148176 -0.75877237 114.64574102 -0.70975757 110.91877556 C-0.66584418 107.01644967 -0.66187441 103.11408271 -0.65357971 99.21154785 C-0.6318677 91.83077632 -0.57448643 84.45073507 -0.50413328 77.07028437 C-0.42575057 68.66407448 -0.38736852 60.25782876 -0.35226524 51.85134411 C-0.27919893 34.56714111 -0.15616313 17.2836479 0 0 Z " fill="#7C797C" transform="translate(44,306)"/>
<path d="M0 0 C2.22808159 -0.10853983 4.45769932 -0.18583307 6.6875 -0.25 C7.92886719 -0.29640625 9.17023438 -0.3428125 10.44921875 -0.390625 C14.60848062 0.06693956 16.20915734 0.91315887 19 4 C19.48828125 6.359375 19.48828125 6.359375 19.3125 8.75 C19.24482422 9.94882813 19.24482422 9.94882813 19.17578125 11.171875 C19.11777344 11.77515625 19.05976563 12.3784375 19 13 C18.01 13 17.02 13 16 13 C16 14.32 16 15.64 16 17 C16.66 17 17.32 17 18 17 C18 17.66 18 18.32 18 19 C18.66 19 19.32 19 20 19 C20.17942163 22.94727588 20.09350689 25.5980513 18 29 C17.34 29 16.68 29 16 29 C16 29.66 16 30.32 16 31 C12.85489907 32.57255046 9.51234555 32.22572668 6.0625 32.25 C5.33353516 32.270625 4.60457031 32.29125 3.85351562 32.3125 C-1.42683746 32.35121936 -1.42683746 32.35121936 -3.95703125 30.80078125 C-5.30664629 28.47054705 -5.54476853 26.61734943 -5.75 23.9375 C-5.82734375 23.05964844 -5.9046875 22.18179688 -5.984375 21.27734375 C-6 19 -6 19 -5 17 C-4.34 17 -3.68 17 -3 17 C-3.33 16.13375 -3.66 15.2675 -4 14.375 C-5.00831558 10.97193493 -5.39104203 8.51937829 -5 5 C-3.625 3.125 -3.625 3.125 -2 2 C-1.34 2 -0.68 2 0 2 C0 1.34 0 0.68 0 0 Z " fill="#E5E1E2" transform="translate(128,199)"/>
<path d="M0 0 C9.9 0 19.8 0 30 0 C29.67 47.19 29.34 94.38 29 143 C28.34 143 27.68 143 27 143 C26.67 119.9 26.34 96.8 26 73 C18.08 72.67 10.16 72.34 2 72 C2 95.43 2 118.86 2 143 C1.34 143 0.68 143 0 143 C0 95.81 0 48.62 0 0 Z M3 1 C1.6048287 3.79034261 1.88044838 6.07225972 1.88647461 9.19384766 C1.88655014 10.49504547 1.88662567 11.79624329 1.88670349 13.13687134 C1.89181053 14.56260211 1.89702653 15.9883325 1.90234375 17.4140625 C1.90420853 18.86851961 1.90563215 20.32297734 1.90663147 21.7774353 C1.91045195 25.60792776 1.92027824 29.43838237 1.93133545 33.26885986 C1.94155965 37.17663053 1.94613126 41.08440731 1.95117188 44.9921875 C1.96190092 52.66147759 1.97949393 60.33072868 2 68 C10.25 68 18.5 68 27 68 C27 45.89 27 23.78 27 1 C19.08 1 11.16 1 3 1 Z " fill="#6A686A" transform="translate(217,306)"/>
<path d="M0 0 C1.41039006 0.00484369 1.41039006 0.00484369 2.84927285 0.00978523 C5.9953517 0.02183524 9.14134223 0.04121333 12.28738403 0.06056213 C14.54439605 0.07070758 16.80141014 0.08040096 19.0584259 0.0896759 C25.18393683 0.11613027 31.30939952 0.14891528 37.4348731 0.1828258 C43.83703782 0.21719515 50.23922835 0.24575772 56.64141846 0.27493286 C67.38654422 0.3246826 78.13164533 0.3780156 88.8767395 0.43409729 C99.94280933 0.49184442 111.00888654 0.54742977 122.07498169 0.60011292 C122.75742734 0.60336263 123.43987298 0.60661235 124.1429988 0.60996055 C127.56672714 0.62625059 130.99045569 0.64249818 134.41418433 0.65872467 C162.80440593 0.79333274 191.19458651 0.93545404 219.58474731 1.08229065 C221.07154456 4.05588514 220.69587336 6.74528244 220.68240356 10.05885315 C220.68028114 11.0867244 220.68028114 11.0867244 220.67811584 12.13536072 C220.67251406 14.32604826 220.65996138 16.51663395 220.64724731 18.70729065 C220.64223254 20.19166417 220.63766959 21.6760393 220.63357544 23.16041565 C220.62254409 26.8010738 220.6052783 30.44167229 220.58474731 34.08229065 C216.9458121 36.38035673 213.90802008 36.30053087 209.66677856 36.2424469 C208.68000374 36.23464455 208.68000374 36.23464455 207.67329407 36.22668457 C205.58104952 36.20893065 203.48930326 36.17774588 201.39724731 36.14479065 C199.29452992 36.11719593 197.19187947 36.09251013 195.08906555 36.0736084 C193.18887224 36.05574227 191.28877573 36.02834481 189.38870239 36.00050354 C186.67973508 35.75857299 186.67973508 35.75857299 185.58474731 37.08229065 C185.49606433 40.03934385 185.46954436 42.97294121 185.48709106 45.9299469 C185.48850601 46.81637375 185.48992096 47.7028006 185.49137878 48.61608887 C185.49699516 51.45902319 185.5095504 54.30187996 185.52224731 57.14479065 C185.52726021 59.06731556 185.53182348 60.98984169 185.53591919 62.91236877 C185.54612083 67.63573029 185.56569294 72.35892323 185.58474731 77.08229065 C201.91974731 77.57729065 201.91974731 77.57729065 218.58474731 78.08229065 C218.58474731 78.41229065 218.58474731 78.74229065 218.58474731 79.08229065 C207.03474731 79.08229065 195.48474731 79.08229065 183.58474731 79.08229065 C183.58474731 64.56229065 183.58474731 50.04229065 183.58474731 35.08229065 C186.59687761 33.5762255 189.69757353 33.96068734 192.99880981 33.9846344 C193.7284494 33.98604935 194.45808899 33.98746429 195.20983887 33.98892212 C197.54318317 33.99452534 199.87643196 34.0070783 202.20974731 34.01979065 C203.7904751 34.02480524 205.37120438 34.02936822 206.95193481 34.03346252 C210.8296055 34.04364548 214.70706933 34.0632201 218.58474731 34.08229065 C218.58474731 23.52229065 218.58474731 12.96229065 218.58474731 2.08229065 C141.69474731 2.08229065 64.80474731 2.08229065 -14.41525269 2.08229065 C-14.41525269 12.64229065 -14.41525269 23.20229065 -14.41525269 34.08229065 C-15.07525269 33.75229065 -15.73525269 33.42229065 -16.41525269 33.08229065 C-16.41001587 32.3866803 -16.40477905 31.69106995 -16.39938354 30.97438049 C-16.37850932 27.80202651 -16.36555936 24.62968704 -16.35275269 21.45729065 C-16.34437378 20.36287659 -16.33599487 19.26846252 -16.32736206 18.1408844 C-16.3241394 17.07740784 -16.32091675 16.01393127 -16.31759644 14.91822815 C-16.31235962 13.9441803 -16.3071228 12.97013245 -16.30172729 11.96656799 C-16.34490174 9.00481809 -16.34490174 9.00481809 -17.0463562 5.84254456 C-17.16809204 4.93166077 -17.28982788 4.02077698 -17.41525269 3.08229065 C-13.11732491 -1.21563713 -5.73647107 -0.04467946 0 0 Z " fill="#B2B0B3" transform="translate(43.415252685546875,15.917709350585938)"/>
<path d="M0 0 C10.89 0 21.78 0 33 0 C33.02255024 11.32611985 33.04091463 22.65222491 33.05181217 33.97836208 C33.05704119 39.23696664 33.06413918 44.4955551 33.07543945 49.75415039 C33.08626766 54.82453127 33.09227669 59.89489662 33.09487724 64.96528816 C33.09673161 66.90426948 33.10035245 68.84324991 33.10573006 70.78222466 C33.1129396 73.4882176 33.11399098 76.19414556 33.11352539 78.90014648 C33.11712067 79.71006546 33.12071594 80.51998444 33.12442017 81.35444641 C33.11405216 86.88594784 33.11405216 86.88594784 32 88 C30.16505514 88.09646028 28.32635413 88.12187344 26.48887634 88.12025452 C25.2926918 88.12162918 24.09650726 88.12300385 22.86407471 88.12442017 C21.52648901 88.12088057 20.18890356 88.11724575 18.85131836 88.11352539 C17.45217389 88.11324352 16.05302927 88.11340125 14.65388489 88.1139679 C10.84413541 88.11425588 7.03441714 88.10835898 3.22467494 88.10139394 C-0.75251309 88.09516059 -4.72970176 88.09455662 -8.70689392 88.09336853 C-16.24338539 88.09025516 -23.77986243 88.08204169 -31.31634754 88.07201904 C-39.89419828 88.06085808 -48.4720497 88.0553475 -57.0499059 88.05032361 C-74.69994546 88.03985908 -92.34997157 88.02225953 -110 88 C-110 85.03 -110 82.06 -110 79 C-73.7 79 -37.4 79 0 79 C0 52.93 0 26.86 0 0 Z M3 1 C0.60048803 4.59926795 0.73033052 7.16436191 0.77294922 11.31713867 C0.77258761 12.44767025 0.77258761 12.44767025 0.7722187 13.60104084 C0.77371121 16.04013699 0.78894088 18.47892729 0.8046875 20.91796875 C0.80762813 22.42403008 0.80966845 23.93009345 0.81079102 25.43615723 C0.82127598 31.01996933 0.8491984 36.60373767 0.875 42.1875 C0.91625 54.665625 0.9575 67.14375 1 80 C-35.3 80 -71.6 80 -109 80 C-109 82.31 -109 84.62 -109 87 C-62.8 87 -16.6 87 31 87 C31.85897502 71.01339455 31.85897502 71.01339455 32.1328125 55.04296875 C32.13376923 53.9266658 32.13472595 52.81036285 32.13571167 51.66023254 C32.13638265 49.33737124 32.13460543 47.01450793 32.13037109 44.69165039 C32.12498122 41.17524968 32.13036661 37.65897514 32.13671875 34.14257812 C32.13965226 23.05480879 32.1052222 12.04341045 31 1 C27.04907941 0.92590599 23.09842706 0.87142594 19.14697266 0.83520508 C17.14080626 0.81267749 15.13483474 0.7745643 13.12890625 0.73632812 C11.87207031 0.72666016 10.61523438 0.71699219 9.3203125 0.70703125 C8.15773926 0.6913208 6.99516602 0.67561035 5.79736328 0.65942383 C4.8742334 0.77181396 3.95110352 0.8842041 3 1 Z " fill="#0F0C0D" transform="translate(212,172)"/>
<path d="M0 0 C0.66 0 1.32 0 2 0 C2 36.63 2 73.26 2 111 C5.96 111 9.92 111 14 111 C13.99777939 109.73990112 13.99555878 108.47980225 13.99327087 107.18151855 C13.97297958 95.29336623 13.957999 83.40521743 13.94818783 71.5170517 C13.94297422 65.40556617 13.93590421 59.29409465 13.92456055 53.18261719 C13.91367758 47.28227094 13.90771169 41.38193815 13.90512276 35.48158264 C13.90327826 33.23299447 13.89967644 30.98440701 13.89426994 28.73582458 C13.88698774 25.58102845 13.88601209 22.42628759 13.88647461 19.27148438 C13.88287933 18.34647125 13.87928406 17.42145813 13.87557983 16.46841431 C13.88387989 11.22004295 14.23757742 6.19418824 15 1 C15.33 1 15.66 1 16 1 C16 37.96 16 74.92 16 113 C10.08216111 114.97261296 5.94426277 115.98142092 0 114 C0 76.38 0 38.76 0 0 Z " fill="#605E61" transform="translate(138,454)"/>
<path d="M0 0 C0.33 0 0.66 0 1 0 C1 55.44 1 110.88 1 168 C16.51 168 32.02 168 48 168 C48 168.33 48 168.66 48 169 C38.43 169 28.86 169 19 169 C19.33 191.44 19.66 213.88 20 237 C28.58 237.33 37.16 237.66 46 238 C46 262.42 46 286.84 46 312 C45.34 312 44.68 312 44 312 C44 288.24 44 264.48 44 240 C35.42 240.33 26.84 240.66 18 241 C18 217.24 18 193.48 18 169 C12.06 169 6.12 169 0 169 C0 113.23 0 57.46 0 0 Z " fill="#5C595B" transform="translate(29,137)"/>
<path d="M0 0 C2.09027837 3.13541756 2.24894205 3.82198311 2.24050903 7.38493347 C2.24325836 8.28095779 2.24600769 9.17698212 2.24884033 10.10015869 C2.24164978 11.08055115 2.23445923 12.0609436 2.22705078 13.07104492 C2.22734283 14.10536148 2.22763489 15.13967804 2.22793579 16.20533752 C2.22654038 19.63046606 2.21096908 23.05537813 2.1953125 26.48046875 C2.19158313 28.85272604 2.1887358 31.22498488 2.18673706 33.59724426 C2.17909468 39.84606161 2.15944092 46.09478623 2.1373291 52.34356689 C2.11688374 58.71796413 2.10773814 65.09237632 2.09765625 71.46679688 C2.07619566 83.97790536 2.04205236 96.48894497 2 109 C5.3 109 8.6 109 12 109 C12.33 73.36 12.66 37.72 13 1 C13.66 1 14.32 1 15 1 C15 37.3 15 73.6 15 111 C10.05 111 5.1 111 0 111 C0 74.37 0 37.74 0 0 Z " fill="#615F62" transform="translate(224,455)"/>
<path d="M0 0 C8.25 0 16.5 0 25 0 C25 2.64 25 5.28 25 8 C23.38263741 9.3927289 21.7074998 10.71937515 20 12 C16.00625733 18.22708561 15.27126023 24.74378897 15 32 C13.52093108 32.02689216 12.04172517 32.04634621 10.5625 32.0625 C9.32693359 32.07990234 9.32693359 32.07990234 8.06640625 32.09765625 C6 32 6 32 5 31 C4.93285213 24.1106289 6.59309786 18.8881554 10 13 C10.66 11.68 11.32 10.36 12 9 C8.04 9 4.08 9 0 9 C0 6.03 0 3.06 0 0 Z " fill="#E3DFE0" transform="translate(94,199)"/>
<path d="M0 0 C0.33 0 0.66 0 1 0 C1 36.96 1 73.92 1 112 C1.99 111.01 1.99 111.01 3 110 C5.1640625 109.8046875 5.1640625 109.8046875 7.625 109.875 C8.44226562 109.89304687 9.25953125 109.91109375 10.1015625 109.9296875 C10.72804688 109.95289063 11.35453125 109.97609375 12 110 C11.99476318 108.97527588 11.98952637 107.95055176 11.98413086 106.89477539 C11.96608031 103.10604724 11.9545678 99.31732291 11.94506836 95.52856445 C11.94002826 93.88630536 11.93319622 92.24405077 11.92456055 90.60180664 C11.91248074 88.24624521 11.90676861 85.89074291 11.90234375 83.53515625 C11.89718246 82.79660904 11.89202118 82.05806183 11.88670349 81.2971344 C11.8865075 79.53101912 11.93805281 77.76502854 12 76 C12.495 75.505 12.495 75.505 13 75 C13.1241622 72.73079775 13.17803748 70.4577355 13.20532227 68.18530273 C13.21522186 67.47314606 13.22512146 66.76098938 13.23532104 66.0272522 C13.26702212 63.66273372 13.29172724 61.29819511 13.31640625 58.93359375 C13.33696836 57.29833948 13.35796463 55.66309062 13.37937927 54.02784729 C13.43467672 49.71571214 13.48405201 45.40352842 13.53222656 41.09130859 C13.58238572 36.69429176 13.63810087 32.2973458 13.69335938 27.90039062 C13.80103473 19.26698693 13.90245871 10.6335241 14 2 C14.66 2 15.32 2 16 2 C16 38.63 16 75.26 16 113 C10.72 113 5.44 113 0 113 C-1 112 -1 112 -1.10743046 110.12780666 C-1.09913432 109.30280194 -1.09083818 108.47779722 -1.08229065 107.62779236 C-1.07525116 106.68403244 -1.06821167 105.74027252 -1.06095886 104.76791382 C-1.04801285 103.72422638 -1.03506683 102.68053894 -1.02172852 101.60522461 C-1.01212097 100.51267868 -1.00251343 99.42013275 -0.99261475 98.29447937 C-0.95949119 94.66370465 -0.91921001 91.0330453 -0.87890625 87.40234375 C-0.85461818 84.89270949 -0.83077398 82.38307089 -0.80735779 79.87342834 C-0.75083127 73.93062076 -0.68980976 67.98786997 -0.62663645 62.04513031 C-0.5479571 54.61802158 -0.47621032 47.19084867 -0.40429688 39.76367188 C-0.27511613 26.50905524 -0.13973388 13.25450937 0 0 Z " fill="#747275" transform="translate(52,454)"/>
<path d="M0 0 C2.2728778 1.76550418 2.94843314 2.64518498 3.36914349 5.539958 C3.36637811 6.56222642 3.36361273 7.58449484 3.36076355 8.63774109 C3.36488754 9.8114325 3.36901154 10.9851239 3.3732605 12.19438171 C3.36247467 13.48334854 3.35168884 14.77231537 3.34057617 16.1003418 C3.33973003 17.47022483 3.34020479 18.84010922 3.34190369 20.20999146 C3.34276558 23.93088837 3.32510872 27.65149605 3.30418181 31.37232566 C3.28544717 35.2600685 3.28366712 39.14781774 3.28010559 43.03559875 C3.27077565 50.3985425 3.2461491 57.76135286 3.21605712 65.12423784 C3.18254257 73.5062331 3.16603453 81.88823468 3.15097082 90.27028024 C3.11960032 107.51359736 3.06682146 124.75678458 3 142 C0.06674403 138.73907091 -0.37260997 136.62365624 -0.36076355 132.27996826 C-0.36488754 131.11331635 -0.36901154 129.94666443 -0.3732605 128.74465942 C-0.36247467 127.46863861 -0.35168884 126.1926178 -0.34057617 124.87792969 C-0.33972976 123.51775125 -0.34020533 122.15757144 -0.34190369 120.7973938 C-0.34276451 117.10754554 -0.32512487 113.41798978 -0.30418181 109.7282095 C-0.28542944 105.87116923 -0.28366571 102.01412228 -0.28010559 98.15704346 C-0.27078088 90.85433953 -0.24616138 83.55177032 -0.21605712 76.24912572 C-0.18252634 67.93482081 -0.16603044 59.62050947 -0.15097082 51.30615377 C-0.11961216 34.20402459 -0.06684342 17.10202654 0 0 Z " fill="#999398" transform="translate(129,306)"/>
<path d="M0 0 C9.57 0 19.14 0 29 0 C29 22.77 29 45.54 29 69 C20.09 69 11.18 69 2 69 C1.97494385 67.01637451 1.9498877 65.03274902 1.92407227 62.98901367 C1.84021603 56.43909966 1.75194822 49.88925676 1.66066074 43.33944225 C1.60546885 39.36784315 1.55205482 35.39623663 1.50268555 31.42456055 C1.45498692 27.59252318 1.40264211 23.76057501 1.34705925 19.92864418 C1.32666062 18.46582571 1.30794342 17.0029828 1.29092598 15.54012108 C1.26682673 13.49304745 1.23677992 11.44614184 1.20532227 9.39916992 C1.18977798 8.23334885 1.1742337 7.06752777 1.15821838 5.86637878 C1.12225371 2.92765899 1.12225371 2.92765899 0 0 Z M4 1 C4 23.11 4 45.22 4 68 C11.92 68 19.84 68 28 68 C28 45.89 28 23.78 28 1 C20.08 1 12.16 1 4 1 Z " fill="#6F6A6E" transform="translate(130,306)"/>
<path d="M0 0 C0.33 0 0.66 0 1 0 C1 9.24 1 18.48 1 28 C3.44277344 27.98839844 5.88554688 27.97679688 8.40234375 27.96484375 C10.75870636 27.95705316 13.11506756 27.95097641 15.47143555 27.94506836 C17.11369464 27.94002826 18.75594923 27.93319622 20.39819336 27.92456055 C22.75375479 27.91248074 25.10925709 27.90676861 27.46484375 27.90234375 C28.20339096 27.89718246 28.94193817 27.89202118 29.7028656 27.88670349 C31.46898088 27.8865075 33.23497146 27.93805281 35 28 C36.59865963 29.59865963 36.16483531 31.30456032 36.20532227 33.51977539 C36.2352401 34.96115623 36.2352401 34.96115623 36.26576233 36.43165588 C36.28247482 37.476436 36.29918732 38.52121613 36.31640625 39.59765625 C36.33718735 40.66165146 36.35796844 41.72564667 36.37937927 42.82188416 C36.44499254 46.2353544 36.50381423 49.64890429 36.5625 53.0625 C36.60567403 55.37045109 36.64928794 57.678394 36.69335938 59.98632812 C36.80068584 65.65746682 36.90242992 71.32868552 37 77 C36.67 76.34 36.34 75.68 36 75 C35.01 75 34.02 75 33 75 C32.67 60.48 32.34 45.96 32 31 C21.44 30.67 10.88 30.34 0 30 C0 20.1 0 10.2 0 0 Z " fill="#686669" transform="translate(30,20)"/>
<path d="M0 0 C1.65 1.32 3.3 2.64 5 4 C4.83826325 4.56551449 4.67652651 5.13102898 4.50988865 5.71368027 C3.98297608 8.07633454 3.86146618 10.16272672 3.84178162 12.58111572 C3.8319928 13.49534302 3.82220398 14.40957031 3.81211853 15.35150146 C3.80636307 16.34700012 3.8006076 17.34249878 3.79467773 18.36816406 C3.78477814 19.42213379 3.77487854 20.47610352 3.76467896 21.56201172 C3.73308591 25.04652661 3.70831508 28.53105514 3.68359375 32.015625 C3.66302234 34.43129837 3.64202582 36.84696815 3.62062073 39.26263428 C3.56541945 45.62151181 3.51600153 51.98042173 3.46777344 58.33935547 C3.41754428 64.8278288 3.36186558 71.3162551 3.30664062 77.8046875 C3.1990828 90.53641815 3.09763249 103.26818964 3 116 C7.95 116 12.9 116 18 116 C18 116.66 18 117.32 18 118 C15.35409986 118.02684679 12.70846904 118.04676357 10.0625 118.0625 C9.30775391 118.07087891 8.55300781 118.07925781 7.77539062 118.08789062 C5.85005687 118.09652441 3.92464419 118.05224333 2 118 C1 117 1 117 0.87974548 115.17859459 C0.88196609 114.37743029 0.88418671 113.57626598 0.88647461 112.75082397 C0.8865451 111.83400848 0.8866156 110.91719299 0.88668823 109.97259521 C0.89185455 108.95860657 0.89702087 107.94461792 0.90234375 106.89990234 C0.90380402 105.8381076 0.90526428 104.77631287 0.9067688 103.68234253 C0.91058593 101.36711542 0.91671405 99.05189127 0.92483521 96.73667526 C0.93754929 93.07172819 0.9441023 89.40681713 0.94897461 85.74185181 C0.96238031 76.63261062 0.98651295 67.5234033 1.01037598 58.41418457 C1.03011313 50.73119932 1.04575605 43.04822697 1.05593872 35.36522293 C1.06241847 31.75634718 1.07493074 28.14752416 1.08764648 24.53866577 C1.09128052 22.3179326 1.09463206 20.09719893 1.09765625 17.87646484 C1.10282257 16.87462158 1.10798889 15.87277832 1.11331177 14.84057617 C1.11369377 9.78080738 0.87325106 4.98639088 0 0 Z " fill="#989699" transform="translate(221,450)"/>
<path d="M0 0 C10.23 0 20.46 0 31 0 C30.67 46.53 30.34 93.06 30 141 C29.67 141 29.34 141 29 141 C28.67 118.23 28.34 95.46 28 72 C19.42 72.33 10.84 72.66 2 73 C1.67 72.01 1.34 71.02 1 70 C10.24 70 19.48 70 29 70 C29 47.23 29 24.46 29 1 C19.43 1 9.86 1 0 1 C0 0.67 0 0.34 0 0 Z " fill="#534E52" transform="translate(130,305)"/>
<path d="M0 0 C0.99 0.33 1.98 0.66 3 1 C3 24.1 3 47.2 3 71 C3.66 71 4.32 71 5 71 C5.33 72.65 5.66 74.3 6 76 C3.5625 74.875 3.5625 74.875 1 73 C-0.03918408 68.71918996 -0.12180819 64.55834142 -0.11352539 60.16845703 C-0.11367142 59.51409164 -0.11381744 58.85972626 -0.1139679 58.18553162 C-0.11327647 56.04292374 -0.10552052 53.90040501 -0.09765625 51.7578125 C-0.09578933 50.26423185 -0.09436672 48.77065058 -0.09336853 47.27706909 C-0.08956494 43.36114793 -0.07975324 39.44526432 -0.06866455 35.52935791 C-0.05840388 31.52738961 -0.05386096 27.52541519 -0.04882812 23.5234375 C-0.0381289 15.6822745 -0.0210786 7.84114193 0 0 Z " fill="#716C70" transform="translate(131,377)"/>
<path d="M0 0 C0.33 1.32 0.66 2.64 1 4 C0.34 4 -0.32 4 -1 4 C-1 5.98 -1 7.96 -1 10 C-0.34 10 0.32 10 1 10 C1 13.3 1 16.6 1 20 C0.34 20 -0.32 20 -1 20 C-1.33 20.99 -1.66 21.98 -2 23 C-3.91635217 23.05423638 -5.83314925 23.09289963 -7.75 23.125 C-8.81734375 23.14820313 -9.8846875 23.17140625 -10.984375 23.1953125 C-13.92470106 23.00487687 -15.52361878 22.52670104 -18 21 C-18 20.01 -18 19.02 -18 18 C-18.66 18 -19.32 18 -20 18 C-20 15.69 -20 13.38 -20 11 C-18.0625 10.4375 -18.0625 10.4375 -16 10 C-15 11 -15 11 -14.9375 13.5625 C-14.958125 14.366875 -14.97875 15.17125 -15 16 C-12.08291076 17.98362069 -10.87619096 17.9876191 -7.25 17.625 C-6.1775 17.41875 -5.105 17.2125 -4 17 C-4.33 16.0925 -4.66 15.185 -5 14.25 C-6 11 -6 11 -6 7 C-6.66 6.67 -7.32 6.34 -8 6 C-7.34 6 -6.68 6 -6 6 C-5.67 5.01 -5.34 4.02 -5 3 C-2.4375 1.3125 -2.4375 1.3125 0 0 Z " fill="#F9F6F7" transform="translate(144,207)"/>
<path d="M0 0 C6.6 0 13.2 0 20 0 C20 2.31 20 4.62 20 7 C15.05 7 10.1 7 5 7 C5.33 9.97 5.66 12.94 6 16 C3.36 16 0.72 16 -2 16 C-1.34 10.72 -0.68 5.44 0 0 Z " fill="#FDF9FA" transform="translate(184,199)"/>
<path d="M0 0 C1.45945288 0.08708669 2.91765868 0.19526907 4.375 0.3125 C5.59316406 0.39951172 5.59316406 0.39951172 6.8359375 0.48828125 C9 1 9 1 11 4 C11.1953125 6.69921875 11.1953125 6.69921875 11.125 9.6875 C11.10695312 10.68136719 11.08890625 11.67523438 11.0703125 12.69921875 C11.04710937 13.45847656 11.02390625 14.21773437 11 15 C10.34 15 9.68 15 9 15 C8.34 16.32 7.68 17.64 7 19 C4.93816367 19.08150744 2.87538651 19.1394194 0.8125 19.1875 C-0.91033203 19.23970703 -0.91033203 19.23970703 -2.66796875 19.29296875 C-6.32725012 18.97122654 -8.19024439 18.35469161 -11 16 C-11 14.68 -11 13.36 -11 12 C-8.125 11.8125 -8.125 11.8125 -5 12 C-4.01 13.485 -4.01 13.485 -3 15 C-0.03 15.495 -0.03 15.495 3 16 C3 11.38 3 6.76 3 2 C2.01 2 1.02 2 0 2 C0 1.34 0 0.68 0 0 Z " fill="#F5F2F3" transform="translate(193,211)"/>
<path d="M0 0 C2.8125 -0.25 2.8125 -0.25 6 0 C8.64052019 2.25775571 8.9659305 3.67512298 9.328125 7.12890625 C9.30234375 8.26199219 9.2765625 9.39507812 9.25 10.5625 C9.23453125 11.69816406 9.2190625 12.83382812 9.203125 14.00390625 C9 17 9 17 8 20 C5.125 20.125 5.125 20.125 2 20 C0 18 0 18 -0.22705078 16.12060547 C-0.21657715 15.37697754 -0.20610352 14.63334961 -0.1953125 13.8671875 C-0.18886719 13.06152344 -0.18242187 12.25585938 -0.17578125 11.42578125 C-0.15064453 10.16314453 -0.15064453 10.16314453 -0.125 8.875 C-0.11597656 8.02550781 -0.10695312 7.17601562 -0.09765625 6.30078125 C-0.07405647 4.20040116 -0.03818483 2.10016556 0 0 Z " fill="#262022" transform="translate(160,205)"/>
<path d="M0 0 C0.33 0 0.66 0 1 0 C1 9.9 1 19.8 1 30 C-16.325 30.495 -16.325 30.495 -34 31 C-34 45.52 -34 60.04 -34 75 C-33.34 75.33 -32.68 75.66 -32 76 C-33.485 76.495 -33.485 76.495 -35 77 C-36.18695418 74.62609164 -36.12075833 73.19755049 -36.11352539 70.55029297 C-36.11344986 69.62948944 -36.11337433 68.70868591 -36.11329651 67.75997925 C-36.10813522 66.76410797 -36.10297394 65.76823669 -36.09765625 64.7421875 C-36.0962413 63.72399933 -36.09482635 62.70581116 -36.09336853 61.6567688 C-36.087759 58.39614965 -36.07520488 55.13559849 -36.0625 51.875 C-36.05748623 49.66796974 -36.05292311 47.46093841 -36.04882812 45.25390625 C-36.03863622 39.83589006 -36.01906262 34.41802138 -36 29 C-24.12 29 -12.24 29 0 29 C0 19.43 0 9.86 0 0 Z " fill="#5D5B5E" transform="translate(261,20)"/>
<path d="M0 0 C0.33 0.99 0.66 1.98 1 3 C1.66 3 2.32 3 3 3 C3.33 7.95 3.66 12.9 4 18 C4.66 18 5.32 18 6 18 C6.2475 18.78375 6.495 19.5675 6.75 20.375 C8.23280004 23.48888008 8.82935237 23.83884309 12 25 C15.20858186 25.35357563 15.20858186 25.35357563 18.625 25.3125 C20.34589844 25.33763672 20.34589844 25.33763672 22.1015625 25.36328125 C23.05804688 25.24339844 24.01453125 25.12351563 25 25 C25.66 24.01 26.32 23.02 27 22 C27.66 22.33 28.32 22.66 29 23 C28.06640625 24.98046875 28.06640625 24.98046875 26 27 C22.97475387 27.55039762 20.00135275 27.42029779 16.9375 27.3125 C16.10927734 27.30283203 15.28105469 27.29316406 14.42773438 27.28320312 C8.33849324 27.16924662 8.33849324 27.16924662 6 26 C6 25.01 6 24.02 6 23 C4.68 23 3.36 23 2 23 C2 23.66 2 24.32 2 25 C0.68 25 -0.64 25 -2 25 C-2 25.66 -2 26.32 -2 27 C-4.41696872 27.05411124 -6.83271787 27.09372278 -9.25 27.125 C-9.93191406 27.14175781 -10.61382812 27.15851563 -11.31640625 27.17578125 C-17.97242861 27.24040283 -17.97242861 27.24040283 -21 25 C-21.75 22.375 -21.75 22.375 -22 20 C-21.34 20.33 -20.68 20.66 -20 21 C-20 21.99 -20 22.98 -20 24 C-16.75684218 24.96604701 -13.81491334 25.13419024 -10.4375 25.125 C-9.48746094 25.12757813 -8.53742188 25.13015625 -7.55859375 25.1328125 C-4.8787562 25.10770994 -4.8787562 25.10770994 -2 24 C-1.26676204 21.98491642 -1.26676204 21.98491642 -1 20 C-0.34 20 0.32 20 1 20 C1.10152799 13.2314676 1.03026944 6.69675136 0 0 Z " fill="#625D5E" transform="translate(175,204)"/>
<path d="M0 0 C0.33 23.43 0.66 46.86 1 71 C0.34 70.67 -0.32 70.34 -1 70 C-1 47.56 -1 25.12 -1 2 C-8.26 2 -15.52 2 -23 2 C-23.66 1.34 -24.32 0.68 -25 0 C-21.58382503 -0.1972935 -18.16705407 -0.38112295 -14.75 -0.5625 C-13.29787109 -0.64661133 -13.29787109 -0.64661133 -11.81640625 -0.73242188 C-10.88183594 -0.78076172 -9.94726562 -0.82910156 -8.984375 -0.87890625 C-8.12553711 -0.9260376 -7.26669922 -0.97316895 -6.38183594 -1.02172852 C-4 -1 -4 -1 0 0 Z " fill="#6E696D" transform="translate(159,377)"/>
<path d="M0 0 C0.33 0 0.66 0 1 0 C1.20674944 5.78898419 0.59162079 10.42932723 -1 16 C3.62 16 8.24 16 13 16 C13.1953125 22.0546875 13.1953125 22.0546875 13 24 C12.34 24.66 11.68 25.32 11 26 C8.875 25.625 8.875 25.625 7 25 C7 24.01 7 23.02 7 22 C4.36 22 1.72 22 -1 22 C-0.01 21.34 0.98 20.68 2 20 C0.68 19.34 -0.64 18.68 -2 18 C-2.054348 15.9377952 -2.09294961 13.87517184 -2.125 11.8125 C-2.14820313 10.66394531 -2.17140625 9.51539063 -2.1953125 8.33203125 C-2.00484152 5.08259628 -1.39360127 2.91339479 0 0 Z " fill="#4D484A" transform="translate(183,200)"/>
<path d="M0 0 C3.72975606 0.1102391 7.45853583 0.24078413 11.1875 0.375 C12.77014648 0.42140625 12.77014648 0.42140625 14.38476562 0.46875 C15.40634766 0.50742187 16.42792969 0.54609375 17.48046875 0.5859375 C18.41785889 0.6173584 19.35524902 0.6487793 20.32104492 0.68115234 C23.16995808 1.02022831 25.39520444 1.82257457 28 3 C27.67 3.66 27.34 4.32 27 5 C16.77 5 6.54 5 -4 5 C-3.34 4.01 -2.68 3.02 -2 2 C-1.34 2 -0.68 2 0 2 C0 1.34 0 0.68 0 0 Z " fill="#777578" transform="translate(135,35)"/>
<path d="M0 0 C2.8125 -0.25 2.8125 -0.25 6 0 C8.64052019 2.25775571 8.9659305 3.67512298 9.328125 7.12890625 C9.30234375 8.26199219 9.2765625 9.39507812 9.25 10.5625 C9.23453125 11.69816406 9.2190625 12.83382812 9.203125 14.00390625 C9 17 9 17 8 20 C5.125 20.125 5.125 20.125 2 20 C0 18 0 18 -0.22705078 16.12060547 C-0.21657715 15.37697754 -0.20610352 14.63334961 -0.1953125 13.8671875 C-0.18886719 13.06152344 -0.18242187 12.25585938 -0.17578125 11.42578125 C-0.15064453 10.16314453 -0.15064453 10.16314453 -0.125 8.875 C-0.11597656 8.02550781 -0.10695312 7.17601562 -0.09765625 6.30078125 C-0.07405647 4.20040116 -0.03818483 2.10016556 0 0 Z M1 1 C1 6.28 1 11.56 1 17 C2.65 17.33 4.3 17.66 6 18 C6 12.39 6 6.78 6 1 C4.35 1 2.7 1 1 1 Z " fill="#817C7E" transform="translate(160,205)"/>
<path d="M0 0 C9.24 0 18.48 0 28 0 C28 0.66 28 1.32 28 2 C15.625 2.495 15.625 2.495 3 3 C2.67 10.26 2.34 17.52 2 25 C1.67 25 1.34 25 1 25 C0.67 16.75 0.34 8.5 0 0 Z " fill="#585659" transform="translate(217,375)"/>
<path d="M0 0 C0.33 0 0.66 0 1 0 C1 2.64 1 5.28 1 8 C0.01 8.33 -0.98 8.66 -2 9 C-1.01 10.485 -1.01 10.485 0 12 C2.40951287 16.19528659 2.4861917 19.21911497 2 24 C1.34 24.66 0.68 25.32 0 26 C-0.03738281 25.25234375 -0.07476562 24.5046875 -0.11328125 23.734375 C-0.17902344 22.74953125 -0.24476563 21.7646875 -0.3125 20.75 C-0.37050781 19.77546875 -0.42851562 18.8009375 -0.48828125 17.796875 C-1.065616 14.64136597 -1.67422019 13.20337034 -4 11 C-6.49407252 10.3049261 -6.49407252 10.3049261 -9.1875 10.25 C-10.53908203 10.16492188 -10.53908203 10.16492188 -11.91796875 10.078125 C-12.60503906 10.05234375 -13.29210937 10.0265625 -14 10 C-14 8.68 -14 7.36 -14 6 C-9.38 6 -4.76 6 0 6 C0 4.02 0 2.04 0 0 Z " fill="#7A7577" transform="translate(204,200)"/>
<path d="M0 0 C8.91 0 17.82 0 27 0 C27 0.66 27 1.32 27 2 C22.37183267 4.35582065 18.24465865 4.23521469 13.1875 4.125 C12.00510742 4.11146484 12.00510742 4.11146484 10.79882812 4.09765625 C8.86575334 4.07422504 6.9328362 4.03835838 5 4 C5 3.34 5 2.68 5 2 C3.35 2 1.7 2 0 2 C0 1.34 0 0.68 0 0 Z " fill="#686669" transform="translate(132,104)"/>
<path d="M0 0 C1.2375 0.1546875 1.2375 0.1546875 2.5 0.3125 C4.6387261 3.52058915 4.97730962 4.58948497 4.5 8.3125 C1.5 10.3125 1.5 10.3125 -1.125 10 C-3.5 9.3125 -3.5 9.3125 -4.5 8.3125 C-4.6875 5.375 -4.6875 5.375 -4.5 2.3125 C-2.5 0.3125 -2.5 0.3125 0 0 Z " fill="#7F7A7C" transform="translate(135.5,215.6875)"/>
<path d="M0 0 C0.83144531 0.05220703 1.66289063 0.10441406 2.51953125 0.15820312 C4.55508108 0.28688731 6.59010441 0.42385407 8.625 0.5625 C8.625 0.8925 8.625 1.2225 8.625 1.5625 C1.035 1.5625 -6.555 1.5625 -14.375 1.5625 C-14.375 12.1225 -14.375 22.6825 -14.375 33.5625 C-15.035 33.2325 -15.695 32.9025 -16.375 32.5625 C-16.36976318 31.86688965 -16.36452637 31.1712793 -16.35913086 30.45458984 C-16.33825663 27.28223587 -16.32530668 24.10989639 -16.3125 20.9375 C-16.30412109 19.84308594 -16.29574219 18.74867187 -16.28710938 17.62109375 C-16.28388672 16.55761719 -16.28066406 15.49414062 -16.27734375 14.3984375 C-16.27210693 13.42438965 -16.26687012 12.4503418 -16.26147461 11.44677734 C-16.30464905 8.48502744 -16.30464905 8.48502744 -17.00610352 5.32275391 C-17.12783936 4.41187012 -17.2495752 3.50098633 -17.375 2.5625 C-12.94127924 -1.87122076 -5.81150677 -0.40319066 0 0 Z " fill="#C8C7C9" transform="translate(43.375,16.4375)"/>
<path d="M0 0 C0.66 0 1.32 0 2 0 C2 1.65 2 3.3 2 5 C1.34 5 0.68 5 0 5 C0.14228301 7.83355099 0.28873416 10.66678787 0.4375 13.5 C0.47681641 14.29148437 0.51613281 15.08296875 0.55664062 15.8984375 C0.82705218 20.97385441 1.3127142 25.96375445 2 31 C1.34 31 0.68 31 0 31 C-1.6371474 27.40564006 -2.24140626 24.64023532 -2.1953125 20.69921875 C-2.18886719 19.72275391 -2.18242188 18.74628906 -2.17578125 17.74023438 C-2.15902344 16.73283203 -2.14226562 15.72542969 -2.125 14.6875 C-2.11597656 13.66076172 -2.10695313 12.63402344 -2.09765625 11.57617188 C-2.07416201 9.05054101 -2.04131131 6.5253919 -2 4 C-1.34 4 -0.68 4 0 4 C0 2.68 0 1.36 0 0 Z " fill="#605E61" transform="translate(112,56)"/>
<path d="M0 0 C0.66 0 1.32 0 2 0 C3.85776765 3.13498292 4.20140476 5.37471432 4 9 C4.66 9 5.32 9 6 9 C6.05382106 11.62527189 6.09358313 14.24944713 6.125 16.875 C6.14175781 17.62136719 6.15851563 18.36773437 6.17578125 19.13671875 C6.1933959 21.09194461 6.10320189 23.04742021 6 25 C5.34 25.66 4.68 26.32 4 27 C3.92652344 25.39318359 3.92652344 25.39318359 3.8515625 23.75390625 C3.77654706 22.35674361 3.7009987 20.9596095 3.625 19.5625 C3.5940625 18.85544922 3.563125 18.14839844 3.53125 17.41992188 C3.42719371 15.60760812 3.22080108 13.80182012 3 12 C2.34 11.67 1.68 11.34 1 11 C0.5859375 8.49609375 0.5859375 8.49609375 0.375 5.4375 C0.30023438 4.42558594 0.22546875 3.41367187 0.1484375 2.37109375 C0.09945312 1.58863281 0.05046875 0.80617187 0 0 Z " fill="#6D6B6E" transform="translate(176,53)"/>
<path d="M0 0 C0.99 0.66 1.98 1.32 3 2 C2.125 6.875 2.125 6.875 1 8 C0.63239269 10.32817964 0.29758419 12.6618385 0 15 C0.66 15 1.32 15 2 15 C2 15.99 2 16.98 2 18 C7.28 18.66 12.56 19.32 18 20 C18 20.33 18 20.66 18 21 C15.39521117 21.0809313 12.79293347 21.14045434 10.1875 21.1875 C9.08051758 21.22520508 9.08051758 21.22520508 7.95117188 21.26367188 C2.55385658 21.3369386 2.55385658 21.3369386 0.03515625 19.8046875 C-1.30270327 17.47226826 -1.5450442 15.6137498 -1.75 12.9375 C-1.82734375 12.05964844 -1.9046875 11.18179688 -1.984375 10.27734375 C-2 8 -2 8 -1 6 C-0.34 6 0.32 6 1 6 C0.67 4.02 0.34 2.04 0 0 Z " fill="#9C9799" transform="translate(124,210)"/>
<path d="M0 0 C6.6 0 13.2 0 20 0 C20 2.31 20 4.62 20 7 C15.38 7 10.76 7 6 7 C6 6.67 6 6.34 6 6 C10.29 6 14.58 6 19 6 C18.67 5.01 18.34 4.02 18 3 C12.06 3 6.12 3 0 3 C0 2.01 0 1.02 0 0 Z " fill="#C6C1C3" transform="translate(184,199)"/>
<path d="M0 0 C9.24 0 18.48 0 28 0 C28 0.99 28 1.98 28 3 C18.76 3 9.52 3 0 3 C0 2.01 0 1.02 0 0 Z " fill="#4C4A4D" transform="translate(47,375)"/>
<path d="M0 0 C0.66 0 1.32 0 2 0 C2 4.29 2 8.58 2 13 C1.34 13 0.68 13 0 13 C-0.66 14.98 -1.32 16.96 -2 19 C-2.66 19 -3.32 19 -4 19 C-3.34 15.7 -2.68 12.4 -2 9 C-2.66 9 -3.32 9 -4 9 C-4 8.34 -4 7.68 -4 7 C-4.66 7 -5.32 7 -6 7 C-5.67 5.68 -5.34 4.36 -5 3 C-5 3.99 -5 4.98 -5 6 C-3.68 6 -2.36 6 -1 6 C-0.67 4.02 -0.34 2.04 0 0 Z " fill="#5A5456" transform="translate(150,209)"/>
<path d="M0 0 C1.125 3.75 1.125 3.75 0 6 C-0.15733249 8.98763355 -0.25861415 11.95541151 -0.31640625 14.9453125 C-0.33718735 15.8303244 -0.35796844 16.7153363 -0.37937927 17.62716675 C-0.44486598 20.45969741 -0.50375562 23.29232225 -0.5625 26.125 C-0.60568606 28.04297857 -0.64930037 29.96094754 -0.69335938 31.87890625 C-0.80054647 36.58584051 -0.9018164 41.29286967 -1 46 C-1.33 46 -1.66 46 -2 46 C-2.21718371 40.0922989 -2.41401807 34.18440171 -2.59204102 28.27539062 C-2.65546019 26.2654408 -2.72443223 24.25565817 -2.79907227 22.24609375 C-2.90541375 19.35703121 -2.99175402 16.46795544 -3.07421875 13.578125 C-3.11157639 12.68007141 -3.14893402 11.78201782 -3.18742371 10.85675049 C-3.33850449 4.58462467 -3.33850449 4.58462467 -1.49536133 1.40136719 C-1.00189209 0.93891602 -0.50842285 0.47646484 0 0 Z " fill="#6F6D70" transform="translate(70,450)"/>
<path d="M0 0 C1.32 0.66 2.64 1.32 4 2 C4 4.97 4 7.94 4 11 C3.01 11 2.02 11 1 11 C1 12.32 1 13.64 1 15 C1.66 15 2.32 15 3 15 C3 15.66 3 16.32 3 17 C3.66 17 4.32 17 5 17 C5.17942163 20.94727588 5.09350689 23.5980513 3 27 C2.34 27 1.68 27 1 27 C1 27.66 1 28.32 1 29 C0.34 28.67 -0.32 28.34 -1 28 C-0.67 27.34 -0.34 26.68 0 26 C0.66 26 1.32 26 2 26 C2 22.7 2 19.4 2 16 C1.34 16 0.68 16 0 16 C0 14.02 0 12.04 0 10 C0.99 10 1.98 10 3 10 C2.41825155 4.6913151 2.41825155 4.6913151 0 0 Z " fill="#B1ABAD" transform="translate(143,201)"/>
<path d="M0 0 C4.62 0 9.24 0 14 0 C14.33 1.65 14.66 3.3 15 5 C14.34 5 13.68 5 13 5 C13 5.66 13 6.32 13 7 C12.34 6.67 11.68 6.34 11 6 C11.33 5.01 11.66 4.02 12 3 C8.04 3 4.08 3 0 3 C0 2.01 0 1.02 0 0 Z " fill="#A39FA0" transform="translate(94,205)"/>
<path d="M0 0 C0.66 0 1.32 0 2 0 C1.94199219 1.08796875 1.88398437 2.1759375 1.82421875 3.296875 C1.50529325 12.03344032 1.89497295 18.67941828 5.90625 26.6796875 C7 29 7 29 7 32 C6.01 32 5.02 32 4 32 C3 29 3 29 4 26 C3.34 26 2.68 26 2 26 C0.25324198 20.00325593 -0.25682842 14.72635779 -0.125 8.5 C-0.11597656 7.67757812 -0.10695313 6.85515625 -0.09765625 6.0078125 C-0.07436865 4.00507917 -0.03850959 2.00249846 0 0 Z " fill="#918F92" transform="translate(112,61)"/>
<path d="M0 0 C0.33 0 0.66 0 1 0 C1.20674944 5.78898419 0.59162079 10.42932723 -1 16 C1.64 16.33 4.28 16.66 7 17 C7 17.66 7 18.32 7 19 C0.25 19.125 0.25 19.125 -2 18 C-2.054348 15.9377952 -2.09294961 13.87517184 -2.125 11.8125 C-2.14820313 10.66394531 -2.17140625 9.51539063 -2.1953125 8.33203125 C-2.00484152 5.08259628 -1.39360127 2.91339479 0 0 Z " fill="#716B6D" transform="translate(183,200)"/>
<path d="M0 0 C1.98 0.66 3.96 1.32 6 2 C6.22036864 5.85645121 5.60355101 8.49223216 4 12 C3.67 12 3.34 12 3 12 C3 10.35 3 8.7 3 7 C1.68 7.33 0.36 7.66 -1 8 C-0.67 5.36 -0.34 2.72 0 0 Z " fill="#777579" transform="translate(111,49)"/>
<path d="M0 0 C0.99 0.495 0.99 0.495 2 1 C2 1.99 2 2.98 2 4 C5.24315782 4.96604701 8.18508666 5.13419024 11.5625 5.125 C12.51253906 5.12757813 13.46257812 5.13015625 14.44140625 5.1328125 C17.1212438 5.10770994 17.1212438 5.10770994 20 4 C20.73323796 1.98491642 20.73323796 1.98491642 21 0 C21.66 0 22.32 0 23 0 C22.67 1.65 22.34 3.3 22 5 C21.34 5 20.68 5 20 5 C20 5.66 20 6.32 20 7 C17.58303128 7.05411124 15.16728213 7.09372278 12.75 7.125 C12.06808594 7.14175781 11.38617188 7.15851563 10.68359375 7.17578125 C4.02757139 7.24040283 4.02757139 7.24040283 1 5 C0.25 2.375 0.25 2.375 0 0 Z " fill="#999395" transform="translate(153,224)"/>
<path d="M0 0 C0 1.98 0 3.96 0 6 C-2.31 5.67 -4.62 5.34 -7 5 C-7 3.35 -7 1.7 -7 0 C-3.86650268 -1.04449911 -3.01031744 -0.93423645 0 0 Z " fill="#7E797B" transform="translate(138,205)"/>
<path d="M0 0 C0.33 0 0.66 0 1 0 C1.19594676 3.14536768 1.3803401 6.29130614 1.5625 9.4375 C1.61857422 10.33533203 1.67464844 11.23316406 1.73242188 12.15820312 C1.78076172 13.01220703 1.82910156 13.86621094 1.87890625 14.74609375 C1.9260376 15.53685303 1.97316895 16.3276123 2.02172852 17.14233398 C2 19 2 19 1 20 C0.76346477 22.52596259 0.57826308 25.03107207 0.4375 27.5625 C0.39431641 28.27341797 0.35113281 28.98433594 0.30664062 29.71679688 C0.20028223 31.47761912 0.09961154 33.2387832 0 35 C-0.33 35 -0.66 35 -1 35 C-1.0246519 30.17619198 -1.04283693 25.35242033 -1.05493164 20.52856445 C-1.05997174 18.88630536 -1.06680378 17.24405077 -1.07543945 15.60180664 C-1.08751926 13.24624521 -1.09323139 10.89074291 -1.09765625 8.53515625 C-1.10281754 7.79660904 -1.10797882 7.05806183 -1.11329651 6.2971344 C-1.1134925 4.53101912 -1.06194719 2.76502854 -1 1 C-0.67 0.67 -0.34 0.34 0 0 Z " fill="#79777A" transform="translate(65,529)"/>
<path d="M0 0 C0.33 1.32 0.66 2.64 1 4 C0.34 4 -0.32 4 -1 4 C-1 6.31 -1 8.62 -1 11 C-1.66 11 -2.32 11 -3 11 C-3.33 13.31 -3.66 15.62 -4 18 C-4.33 18 -4.66 18 -5 18 C-4.71311275 10.99995111 -3.49595688 6.08973134 0 0 Z " fill="#A39D9F" transform="translate(104,212)"/>
<path d="M0 0 C0.33 0.66 0.66 1.32 1 2 C-1.77280706 5.08089673 -4.06326356 6.68775452 -8 8 C-6.9802693 4.22699642 -6.34127338 3.19793856 -2.875 1.1875 C-1.92625 0.795625 -0.9775 0.40375 0 0 Z " fill="#7B787C" transform="translate(172,94)"/>
<path d="M0 0 C2.16874252 0.50603992 3.99967627 0.99983813 6 2 C6 2.66 6 3.32 6 4 C2.7 4 -0.6 4 -4 4 C-4 4.66 -4 5.32 -4 6 C-4.66 5.67 -5.32 5.34 -6 5 C-5.67 4.34 -5.34 3.68 -5 3 C-2.4375 2.375 -2.4375 2.375 0 2 C0 1.34 0 0.68 0 0 Z " fill="#3E383A" transform="translate(132,195)"/>
<path d="M0 0 C0 0.66 0 1.32 0 2 C-1.98 2.66 -3.96 3.32 -6 4 C-6 3.34 -6 2.68 -6 2 C-9.96 2 -13.92 2 -18 2 C-18 1.67 -18 1.34 -18 1 C-11.97968656 0.39034801 -6.05329744 -0.13451772 0 0 Z " fill="#747275" transform="translate(159,104)"/>
<path d="M0 0 C0.33 0 0.66 0 1 0 C1.28571429 7.42857143 1.28571429 7.42857143 -1 11 C-2.33333333 10.33333333 -3.66666667 9.66666667 -5 9 C-3.50164236 5.88802644 -1.86022073 2.91164984 0 0 Z " fill="#8D8B8E" transform="translate(175,86)"/>
<path d="M0 0 C1.65 0 3.3 0 5 0 C5 1.98 5 3.96 5 6 C3.68 6 2.36 6 1 6 C0.67 4.02 0.34 2.04 0 0 Z " fill="#1E191B" transform="translate(190,217)"/>
<path d="M0 0 C0.33 0 0.66 0 1 0 C1.04898438 0.61488281 1.09796875 1.22976562 1.1484375 1.86328125 C1.22320312 2.67152344 1.29796875 3.47976562 1.375 4.3125 C1.44460937 5.11300781 1.51421875 5.91351563 1.5859375 6.73828125 C1.89564426 9.27224441 1.89564426 9.27224441 4 12 C4.125 14.6875 4.125 14.6875 4 17 C3.34 17 2.68 17 2 17 C0.14868517 13.07142246 -0.22004943 10.01224888 -0.125 5.6875 C-0.10695313 4.61886719 -0.08890625 3.55023438 -0.0703125 2.44921875 C-0.04710938 1.64097656 -0.02390625 0.83273438 0 0 Z " fill="#6E6C6F" transform="translate(110,70)"/>
<path d="M0 0 C1.65 0 3.3 0 5 0 C5 1.65 5 3.3 5 5 C3.35 5 1.7 5 0 5 C0 3.35 0 1.7 0 0 Z " fill="#292325" transform="translate(132,219)"/>
<path d="M0 0 C0.66 0 1.32 0 2 0 C2.19622241 4.21878192 1.80230168 7.17010894 0 11 C-0.66 11 -1.32 11 -2 11 C-2 9.35 -2 7.7 -2 6 C-1.34 6 -0.68 6 0 6 C0 4.02 0 2.04 0 0 Z " fill="#686669" transform="translate(178,80)"/>
<path d="M0 0 C0 0.99 0 1.98 0 3 C-2.76264289 3.59732819 -5.16032769 4 -8 4 C-8 3.01 -8 2.02 -8 1 C-5.07175348 0.02391783 -3.04386724 -0.08226668 0 0 Z " fill="#777578" transform="translate(130,40)"/>
<path d="M0 0 C1.65 1.32 3.3 2.64 5 4 C4.67 5.32 4.34 6.64 4 8 C3.01 7.67 2.02 7.34 1 7 C0.67 4.69 0.34 2.38 0 0 Z " fill="#7A787B" transform="translate(221,450)"/>
<path d="M0 0 C1.32 0.66 2.64 1.32 4 2 C3.67 3.32 3.34 4.64 3 6 C2.01 6 1.02 6 0 6 C-0.33 6.66 -0.66 7.32 -1 8 C-0.67 5.36 -0.34 2.72 0 0 Z " fill="#7D7B7E" transform="translate(111,49)"/>
<path d="M0 0 C3.34373475 0.55728913 6.03312999 1.35173889 9 3 C8 4 8 4 4.9375 4.0625 C3.968125 4.041875 2.99875 4.02125 2 4 C1.34 2.68 0.68 1.36 0 0 Z " fill="#6E6D70" transform="translate(154,36)"/>
<path d="M0 0 C0.66 0 1.32 0 2 0 C1.67 1.65 1.34 3.3 1 5 C0.34 5 -0.32 5 -1 5 C-1 5.66 -1 6.32 -1 7 C-1.99 7 -2.98 7 -4 7 C-3.67 6.01 -3.34 5.02 -3 4 C-2.34 4 -1.68 4 -1 4 C-0.67 2.68 -0.34 1.36 0 0 Z " fill="#726E6F" transform="translate(174,224)"/>
<path d="M0 0 C2.88437779 1.29299694 4.87219421 2.65941363 7 5 C6.38125 5.144375 5.7625 5.28875 5.125 5.4375 C2.96741678 5.93152225 2.96741678 5.93152225 1 7 C1 6.01 1 5.02 1 4 C0.34 3.67 -0.32 3.34 -1 3 C-0.34 3 0.32 3 1 3 C0.67 2.01 0.34 1.02 0 0 Z " fill="#939093" transform="translate(123,96)"/>
<path d="M0 0 C-0.33 0.66 -0.66 1.32 -1 2 C-1 2.66 -1 3.32 -1 4 C-3.97 3.01 -6.94 2.02 -10 1 C-10 0.67 -10 0.34 -10 0 C-6.33694766 -0.74926071 -3.57644848 -1.2380014 0 0 Z " fill="#8D8C8E" transform="translate(166,40)"/>
<path d="M0 0 C0.66 0 1.32 0 2 0 C2 0.99 2 1.98 2 3 C1.01 3.495 1.01 3.495 0 4 C-0.46523063 5.89533342 -0.46523063 5.89533342 -0.625 8.0625 C-0.74875 9.361875 -0.8725 10.66125 -1 12 C-1.33 12 -1.66 12 -2 12 C-2.05422947 10.5629191 -2.09289723 9.12524538 -2.125 7.6875 C-2.14820313 6.88699219 -2.17140625 6.08648437 -2.1953125 5.26171875 C-2 3 -2 3 0 0 Z " fill="#6B696C" transform="translate(154,451)"/>
<path d="M0 0 C2.97 0.495 2.97 0.495 6 1 C6.33 2.32 6.66 3.64 7 5 C4.69 4.34 2.38 3.68 0 3 C0 2.01 0 1.02 0 0 Z " fill="#DFD9DB" transform="translate(190,212)"/>
<path d="M0 0 C1.65 0 3.3 0 5 0 C5 1.32 5 2.64 5 4 C3.35 3.67 1.7 3.34 0 3 C0 2.01 0 1.02 0 0 Z " fill="#2B2628" transform="translate(132,206)"/>
<path d="M0 0 C2.475 0.495 2.475 0.495 5 1 C5 1.66 5 2.32 5 3 C5.99 3 6.98 3 8 3 C8 3.99 8 4.98 8 6 C4.63408134 4.55746343 2.48952921 2.66735273 0 0 Z " fill="#6F6D70" transform="translate(163,41)"/>
<path d="M0 0 C0.33 0 0.66 0 1 0 C1 3.3 1 6.6 1 10 C0.01 10.33 -0.98 10.66 -2 11 C-1.34 7.37 -0.68 3.74 0 0 Z " fill="#F0EAEC" transform="translate(184,202)"/>
<path d="" fill="#FFFFFF" transform="translate(0,0)"/>
<path d="" fill="#FFFFFF" transform="translate(0,0)"/>
<path d="" fill="#FFFFFF" transform="translate(0,0)"/>
<path d="" fill="#FFFFFF" transform="translate(0,0)"/>
<path d="" fill="#FFFFFF" transform="translate(0,0)"/>
<path d="" fill="#FFFFFF" transform="translate(0,0)"/>
<path d="" fill="#FFFFFF" transform="translate(0,0)"/>
<path d="" fill="#FFFFFF" transform="translate(0,0)"/>
<path d="" fill="#FFFFFF" transform="translate(0,0)"/>
<path d="" fill="#FFFFFF" transform="translate(0,0)"/>
<path d="" fill="#FFFFFF" transform="translate(0,0)"/>
<path d="" fill="#FFFFFF" transform="translate(0,0)"/>
<path d="" fill="#FFFFFF" transform="translate(0,0)"/>
<path d="" fill="#FFFFFF" transform="translate(0,0)"/>
<path d="" fill="#FFFFFF" transform="translate(0,0)"/>
<path d="" fill="#FFFFFF" transform="translate(0,0)"/>
<path d="" fill="#FFFFFF" transform="translate(0,0)"/>
<path d="" fill="#FFFFFF" transform="translate(0,0)"/>
<path d="" fill="#FFFFFF" transform="translate(0,0)"/>
<path d="" fill="#FFFFFF" transform="translate(0,0)"/>
<path d="" fill="#FFFFFF" transform="translate(0,0)"/>
<path d="" fill="#FFFFFF" transform="translate(0,0)"/>
<path d="" fill="#FFFFFF" transform="translate(0,0)"/>
<path d="" fill="#FFFFFF" transform="translate(0,0)"/>
<path d="" fill="#FFFFFF" transform="translate(0,0)"/>
<path d="" fill="#FFFFFF" transform="translate(0,0)"/>
<path d="" fill="#FFFFFF" transform="translate(0,0)"/>
<path d="" fill="#FFFFFF" transform="translate(0,0)"/>
<path d="" fill="#FFFFFF" transform="translate(0,0)"/>
<path d="" fill="#FFFFFF" transform="translate(0,0)"/>
<path d="" fill="#FFFFFF" transform="translate(0,0)"/>
<path d="" fill="#FFFFFF" transform="translate(0,0)"/>
<path d="" fill="#FFFFFF" transform="translate(0,0)"/>
<path d="" fill="#FFFFFF" transform="translate(0,0)"/>
<path d="" fill="#FFFFFF" transform="translate(0,0)"/>
<path d="" fill="#FFFFFF" transform="translate(0,0)"/>
<path d="" fill="#FFFFFF" transform="translate(0,0)"/>
<path d="" fill="#FFFFFF" transform="translate(0,0)"/>
<path d="" fill="#FFFFFF" transform="translate(0,0)"/>
<path d="" fill="#FFFFFF" transform="translate(0,0)"/>
<path d="" fill="#FFFFFF" transform="translate(0,0)"/>
<path d="" fill="#FFFFFF" transform="translate(0,0)"/>
<path d="" fill="#FFFFFF" transform="translate(0,0)"/>
<path d="" fill="#FFFFFF" transform="translate(0,0)"/>
<path d="" fill="#FFFFFF" transform="translate(0,0)"/>
<path d="" fill="#FFFFFF" transform="translate(0,0)"/>
<path d="" fill="#FFFFFF" transform="translate(0,0)"/>
</svg>
