<?xml version='1.0' encoding='UTF-8' standalone='no'?>
<!-- Created with Fritzing (http://www.fritzing.org/) -->
<svg xmlns:svg='http://www.w3.org/2000/svg' xmlns='http://www.w3.org/2000/svg' version='1.2' baseProfile='tiny' x='0in' y='0in' width='0.214667in' height='0.761334in' viewBox='0 0 15.456 54.816' >
<path stroke='#8c8c8c' stroke-width='1.988' stroke-linecap='round' stroke-linejoin='round' fill='none' d='M11.729,29.207L11.729,53.822' />
<path stroke='#8c8c8c' stroke-width='1.988' stroke-linecap='round' stroke-linejoin='round' fill='none' d='M4.52701,29.207L4.52701,53.822' />
<g partID='854189060'><g xmlns="http://www.w3.org/2000/svg" id="breadboard">
 <rect xmlns="http://www.w3.org/2000/svg" fill="none" x="3.45101" id="connector0pin" y="25.421" height="0.72" width="2.151"/>
 <rect xmlns="http://www.w3.org/2000/svg" fill="none" x="10.651" id="connector1pin" y="25.421" height="0.72" width="2.154"/>
 <g xmlns="http://www.w3.org/2000/svg" stroke-width="1.988" stroke-linecap="round" fill="none" stroke="#8C8C8C" id="connector0leg" x1="4.527" y1="29.207" x2="4.527" y2="53.822"/>
 <g xmlns="http://www.w3.org/2000/svg" stroke-width="1.988" stroke-linecap="round" fill="none" stroke="#8C8C8C" id="connector1leg" x1="11.729" y1="29.207" x2="11.729" y2="53.822"/>
 <rect xmlns="http://www.w3.org/2000/svg" fill="#8C8C8C" x="3.45101" y="19.379" height="9.82801" width="2.151"/>
 <path xmlns="http://www.w3.org/2000/svg" fill="#8C8C8C" d="M12.805,29.207c0,-1.174,-1.065,-2.103,-2.089,-2.992c-0.416001,-0.367,-1.199,-1.001,-1.199,-1.424L9.51701,19.32L7.35601,19.32L7.35601,25.1c0,1.059,0.947001,1.879,1.946,2.748c0.444001,0.377,1.349,1.25,1.349,1.771"/>
 <g xmlns="http://www.w3.org/2000/svg" id="g12">
  <path xmlns="http://www.w3.org/2000/svg" enable-background="new    " fill="#e60000" id="color_path14" d="M11.694,14.099L11.694,9.80001c0,-2.845,-2.303,-5.153,-5.15101,-5.153C3.69801,4.647,1.39,6.951,1.39,9.80001l0,9.92101c1.071,1.201,2.979,2.001,5.15301,2.001c3.35901,0,6.08301,-1.902,6.08301,-4.26l0,-1.107C12.626,15.525,12.281,14.754,11.694,14.099z" opacity="0.3"/>
  <path xmlns="http://www.w3.org/2000/svg" enable-background="new    " fill="#E6E6E6" id="path16" d="M11.694,14.099L11.694,9.80001c0,-2.845,-2.303,-5.153,-5.15101,-5.153C3.69801,4.647,1.39,6.951,1.39,9.80001l0,9.92101c1.071,1.201,2.979,2.001,5.15301,2.001c3.35901,0,6.08301,-1.902,6.08301,-4.26l0,-1.107C12.626,15.525,12.281,14.754,11.694,14.099z" opacity="0.5"/>
  <path xmlns="http://www.w3.org/2000/svg" enable-background="new    " fill="#D1D1D1" id="path18" d="M11.694,14.099l0,2.257c0,1.991,-2.301,3.608,-5.15101,3.608c-2.845,0,-5.15301,-1.612,-5.15301,-3.608l0,2.257l0,1.109c1.071,1.2,2.979,2,5.15301,2c3.35901,0,6.08301,-1.902,6.08301,-4.26l0,-1.106C12.626,15.525,12.281,14.754,11.694,14.099z" opacity="0.9"/>
  <path xmlns="http://www.w3.org/2000/svg" enable-background="new    " fill="#e60000" id="color_path20" d="M11.694,14.099l0,2.257c0,1.991,-2.301,3.608,-5.15101,3.608c-2.845,0,-5.15301,-1.612,-5.15301,-3.608l0,2.257l0,1.109c1.071,1.2,2.979,2,5.15301,2c3.35901,0,6.08301,-1.902,6.08301,-4.26l0,-1.106C12.626,15.525,12.281,14.754,11.694,14.099z" opacity="0.7"/>
  <path xmlns="http://www.w3.org/2000/svg" enable-background="new    " fill="#e60000" id="color_path22" d="M11.694,14.099l0,2.257c0,1.991,-2.301,3.608,-5.15101,3.608c-2.845,0,-5.15301,-1.612,-5.15301,-3.608l0,2.257c1.071,1.2,2.979,2.001,5.15301,2.001c3.35901,0,6.08301,-1.903,6.08301,-4.259C12.626,15.525,12.281,14.754,11.694,14.099z" opacity="0.25"/>
  <ellipse xmlns="http://www.w3.org/2000/svg" cx="6.54301" rx="5.15301" cy="16.356" enable-background="new    " fill="#E6E6E6" id="ellipse24" ry="3.606" opacity="0.25"/>
  <ellipse xmlns="http://www.w3.org/2000/svg" cx="6.54301" rx="5.15301" cy="16.356" enable-background="new    " fill="#e60000" id="color_ellipse26" ry="3.606" opacity="0.25"/>
  <polygon xmlns="http://www.w3.org/2000/svg" fill="#666666" id="polygon28" points="2.991,11.661,2.991,16.355,3.71401,16.355,3.71401,14.167,5.76301,14.167,8.66801,11.048,3.86701,11.048"/>
  <polygon xmlns="http://www.w3.org/2000/svg" fill="#666666" id="polygon30" points="9.22601,10.844,9.54401,11.214,6.77801,14.167,9.43101,14.167,9.43101,16.355,10.095,16.355,10.095,10.844"/>
  <path xmlns="http://www.w3.org/2000/svg" enable-background="new    " fill="#e60000" id="color_path32" d="M11.694,14.099L11.694,9.80001c0,-2.845,-2.303,-5.153,-5.15101,-5.153C3.69801,4.647,1.39,6.951,1.39,9.80001l0,9.92101c1.071,1.201,2.979,2.001,5.15301,2.001c3.35901,0,6.08301,-1.902,6.08301,-4.26l0,-1.107C12.626,15.525,12.281,14.754,11.694,14.099z" opacity="0.65"/>
  <path xmlns="http://www.w3.org/2000/svg" enable-background="new    " fill="#FFFFFF" id="path34" d="M8.94301,7.376l1.043,-0.199C9.37401,6.354,8.47301,5.754,7.41101,5.55l0.186,0.786C8.15201,6.532,8.61901,6.903,8.94301,7.376z" opacity="0.5"/>
  <path xmlns="http://www.w3.org/2000/svg" enable-background="new    " fill="#FFFFFF" id="path36" d="M1.948,19.132l0,1.104c0.472001,0.385,1.042,0.71,1.677,0.957001l0,-1.107C2.988,19.841,2.422,19.518,1.948,19.132z" opacity="0.5"/>
  <path xmlns="http://www.w3.org/2000/svg" enable-background="new    " fill="#FFFFFF" id="path38" d="M9.44001,19.338c-0.186,0.089,-0.385001,0.167,-0.585001,0.239c-0.0420001,0.015,-0.0860001,0.03,-0.13,0.043c-0.410001,0.131,-0.844001,0.231,-1.305,0.287c-0.0540001,0.007,-0.11,0.015,-0.164,0.015c-0.233,0.021,-0.468001,0.042,-0.706001,0.042c-0.108,0,-0.223,-0.012,-0.343001,-0.018c-0.873001,-0.042,-1.694,-0.229,-2.397,-0.537l0,-6.098L3.81001,9.80301c0,-1.069,0.616001,-1.984,1.507,-2.435L5.30201,7.33l-0.907001,-1.1C3.181,6.959,2.367,8.281,2.367,9.80101l0,8.653c-0.0360001,-0.035,-0.224,-0.224,-0.349001,-0.384l-0.224,0.499c1.019,1.077,2.769,1.789,4.75701,1.789c1.222,0,2.354,-0.271,3.28001,-0.728l-0.383001,-0.298C9.44001,19.338,9.44001,19.338,9.44001,19.338z" opacity="0.5"/>
 </g>
</g>
</g></svg>